<?xml version="1.0" encoding="UTF-8" standalone="no"?>
<svg width="28px" height="20px" viewBox="0 0 28 20" version="1.1" xmlns="http://www.w3.org/2000/svg" xmlns:xlink="http://www.w3.org/1999/xlink">
    <!-- Generator: Sketch 44.1 (41455) - http://www.bohemiancoding.com/sketch -->
    <title>arrow-right</title>
    <desc>Created with Sketch.</desc>
    <defs></defs>
    <g id="Page-1" stroke="none" stroke-width="1" fill="none" fill-rule="evenodd">
        <g id="главная" transform="translate(-1302.000000, -2094.000000)" fill-rule="nonzero" fill="#000000">
            <g id="new-collection/-max-size-1920" transform="translate(0.000000, 1574.000000)">
                <g id="смотреть-больше" transform="translate(1125.000000, 519.000000)">
                    <g id="arrow-right" transform="translate(177.000000, 1.000000)">
                        <path d="M27.2811297,9.13570029 L18.3628133,0.217383961 C18.072968,-0.0724613202 17.6017837,-0.0724613202 17.3119384,0.217383961 C17.0220931,0.507229241 17.0220931,0.978413621 17.3119384,1.2682589 L24.960881,8.91720154 L0.743193027,8.91720154 C0.332950476,8.91720154 0,9.25015202 0,9.66039457 C0,10.0706371 0.332950476,10.4035876 0.743193027,10.4035876 L24.960881,10.4035876 L17.3119384,18.0525302 C17.0220931,18.3423755 17.0220931,18.8135599 17.3119384,19.1034052 C17.4576042,19.249071 17.6478616,19.3204175 17.838119,19.3204175 C18.0283765,19.3204175 18.2186339,19.2475846 18.3642997,19.1034052 L27.282616,10.1850888 C27.5724613,9.89524356 27.5724613,9.42405919 27.282616,9.1342139 L27.2811297,9.13570029 Z" id="Shape"></path>
                    </g>
                </g>
            </g>
        </g>
    </g>
</svg>