<svg width="164" height="26" viewBox="0 0 164 26" xmlns="http://www.w3.org/2000/svg"><title>7DBB3853-8435-4D2E-A8DA-F3240CE6366A</title><path d="M25.697 24.655h-6.485c-1.149-.81-2.908-2.928-5.277-6.356a51.249 51.249 0 0 0-2.363-3.15c-.817-1.007-1.38-1.62-1.688-1.84-.308-.22-.787-.33-1.439-.33h-.96v5.374c0 1.904.045 3.151.134 3.74.089.59.326 1.027.71 1.312.386.286 1.123.429 2.213.429h1.155v.821H.166v-.821h.782c1.03 0 1.744-.131 2.14-.393.397-.262.649-.67.756-1.223.106-.553.16-1.842.16-3.865V6.48c0-1.928-.054-3.172-.16-3.731-.107-.56-.344-.946-.711-1.16-.367-.215-1.16-.322-2.38-.322h-.41V.446L3.79.267C6.088.16 7.912.107 9.262.107c2.298 0 4.167.214 5.606.642 1.44.429 2.603 1.13 3.491 2.107.889.976 1.333 2.142 1.333 3.5 0 1.582-.58 2.933-1.741 4.052-1.161 1.119-2.867 1.815-5.117 2.089 1.006.488 2.63 2.25 4.868 5.285 1.824 2.463 3.257 4.076 4.3 4.838 1.042.762 2.274 1.166 3.695 1.214v.821zM7.486 12.158c.888-.024 1.806-.06 2.754-.107.947-.048 1.77-.179 2.47-.393.698-.215 1.264-.527 1.696-.938.432-.41.773-.949 1.022-1.615.248-.667.373-1.488.373-2.464 0-1.702-.424-3.065-1.27-4.089-.848-1.023-2.692-1.535-5.535-1.535-.438 0-.942.024-1.51.071v11.07zM44.992.446h8.048v.82c-1.066.072-1.862.313-2.39.724-.527.41-.85.872-.968 1.384-.118.511-.177 1.505-.177 2.981v8.052c0 2.06-.08 3.589-.24 4.589-.16 1-.622 1.981-1.386 2.945-.764.965-1.839 1.732-3.225 2.304-1.386.57-2.985.857-4.797.857-2.144 0-3.959-.366-5.445-1.098-1.487-.732-2.547-1.679-3.18-2.84-.634-1.16-.951-2.716-.951-4.668l.018-2.482V6.48c0-1.928-.057-3.172-.17-3.731-.112-.56-.349-.946-.71-1.16-.361-.215-1.152-.322-2.372-.322h-.55V.446h10.997v.82h-.48c-1.184 0-1.96.1-2.327.295-.367.197-.613.563-.737 1.098-.125.536-.187 1.81-.187 3.821v7.624c0 2.642.122 4.517.364 5.624.243 1.107.927 2.074 2.052 2.9 1.126.828 2.624 1.242 4.495 1.242 1.47 0 2.805-.277 4.007-.83 1.202-.554 2.096-1.244 2.683-2.072.586-.827.944-1.678 1.075-2.553.13-.874.195-2.252.195-4.133V6.034c0-1.369-.077-2.327-.231-2.875-.154-.547-.486-.982-.995-1.303-.51-.321-1.315-.518-2.416-.59v-.82zM70.7 20.477L79.477.446h7.391v.82h-.888c-1.184 0-1.96.1-2.327.295-.368.197-.613.563-.738 1.098-.124.536-.186 1.81-.186 3.821v11.873c0 1.904.047 3.151.142 3.74.095.59.335 1.027.72 1.312.384.286 1.122.429 2.211.429h1.066v.821H75.355v-.821h.853c1.019 0 1.727-.131 2.123-.393.397-.262.652-.67.764-1.223.113-.553.17-1.842.17-3.865V2.945l-9.542 21.71h-.835l-9.612-21.71v14.176c0 1.94.06 3.261.178 3.963.119.703.486 1.319 1.102 1.848.616.53 1.48.83 2.594.902v.821h-8.617v-.821c1.03-.06 1.868-.342 2.514-.848.645-.506 1.039-1.128 1.181-1.866.142-.738.213-2.107.213-4.106V6.48c0-1.928-.056-3.172-.168-3.731-.113-.56-.35-.946-.711-1.16-.361-.215-1.152-.322-2.372-.322h-.657V.446h7.337l8.83 20.031zm32.566-4.749h-9.15l-.621 1.536c-.924 2.226-1.386 3.678-1.386 4.356 0 .726.245 1.277.737 1.652.492.374 1.122.562 1.892.562v.821h-7.16v-.821c1.066-.167 1.86-.545 2.38-1.134.522-.589 1.15-1.83 1.884-3.722.06-.179.344-.87.853-2.071l7-16.8h.693l8.049 19.228 1.101 2.535c.249.571.583 1.02 1.004 1.348.42.327 1.051.533 1.892.616v.821h-9.47v-.821c1.161 0 1.946-.086 2.354-.259.41-.173.613-.515.613-1.027 0-.261-.272-1.041-.817-2.338l-1.848-4.482zm-.302-.803L98.7 4.605l-4.246 10.32h8.51zm35.694 9.73h-6.485c-1.149-.81-2.908-2.928-5.277-6.356a51.248 51.248 0 0 0-2.363-3.15c-.817-1.007-1.38-1.62-1.687-1.84-.308-.22-.788-.33-1.44-.33h-.959v5.374c0 1.904.044 3.151.133 3.74.09.59.326 1.027.71 1.312.386.286 1.123.429 2.213.429h1.155v.821h-11.531v-.821h.782c1.03 0 1.744-.131 2.14-.393.397-.262.65-.67.756-1.223.106-.553.16-1.842.16-3.865V6.48c0-1.928-.054-3.172-.16-3.731-.107-.56-.344-.946-.71-1.16-.368-.215-1.162-.322-2.382-.322h-.408V.446l3.446-.179c2.298-.107 4.122-.16 5.473-.16 2.298 0 4.166.214 5.605.642 1.44.429 2.603 1.13 3.491 2.107.889.976 1.333 2.142 1.333 3.5 0 1.582-.58 2.933-1.741 4.052-1.161 1.119-2.867 1.815-5.117 2.089 1.007.488 2.63 2.25 4.868 5.285 1.824 2.463 3.257 4.076 4.3 4.838 1.042.762 2.274 1.166 3.695 1.214v.821zm-18.211-12.497c.888-.024 1.806-.06 2.754-.107.947-.048 1.77-.179 2.47-.393.698-.215 1.264-.527 1.696-.938.433-.41.773-.949 1.022-1.615.249-.667.373-1.488.373-2.464 0-1.702-.424-3.065-1.27-4.089-.847-1.023-2.692-1.535-5.535-1.535-.438 0-.941.024-1.51.071v11.07zm33.988 3.57h-9.15l-.622 1.536c-.924 2.226-1.386 3.678-1.386 4.356 0 .726.246 1.277.738 1.652.491.374 1.122.562 1.892.562v.821h-7.16v-.821c1.066-.167 1.86-.545 2.38-1.134.522-.589 1.15-1.83 1.884-3.722.06-.179.343-.87.853-2.071l7-16.8h.693l8.048 19.228 1.102 2.535c.249.571.583 1.02 1.004 1.348.42.327 1.05.533 1.892.616v.821h-9.47v-.821c1.16 0 1.946-.086 2.354-.259.409-.173.613-.515.613-1.027 0-.261-.272-1.041-.817-2.338l-1.848-4.482zm-.302-.803l-4.264-10.32-4.246 10.32h8.51z" fill-rule="evenodd"/></svg>