<?xml version="1.0" encoding="UTF-8" standalone="no"?>
<svg width="30px" height="30px" viewBox="0 0 30 30" version="1.1" xmlns="http://www.w3.org/2000/svg" xmlns:xlink="http://www.w3.org/1999/xlink">
    <!-- Generator: Sketch 44.1 (41455) - http://www.bohemiancoding.com/sketch -->
    <title>data</title>
    <desc>Created with Sketch.</desc>
    <defs></defs>
    <g id="Symbols" stroke="none" stroke-width="1" fill="none" fill-rule="evenodd">
        <g id="data" fill="#999999">
            <path d="M14.5,16 C11.467,16 9,13.533 9,10.5 C9,7.467 11.467,5 14.5,5 C17.533,5 20,7.467 20,10.5 C20,13.533 17.533,16 14.5,16 Z M14.5,6 C12.019,6 10,8.019 10,10.5 C10,12.981 12.019,15 14.5,15 C16.981,15 19,12.981 19,10.5 C19,8.019 16.981,6 14.5,6 Z" id="Shape"></path>
            <path d="M22.5,25 L6.5,25 C5.673,25 5,24.327 5,23.5 C5,23.432 5.014,21.815 6.225,20.2 C6.93,19.26 7.895,18.513 9.094,17.981 C10.558,17.33 12.377,17 14.5,17 C16.623,17 18.442,17.33 19.906,17.981 C21.105,18.514 22.07,19.26 22.775,20.2 C23.986,21.815 24,23.432 24,23.5 C24,24.327 23.327,25 22.5,25 Z M14.5,18 C11.013,18 8.44,18.953 7.059,20.756 C6.024,22.107 6.001,23.488 6,23.502 C6,23.776 6.224,24 6.5,24 L22.5,24 C22.776,24 23,23.776 23,23.5 C23,23.488 22.977,22.107 21.941,20.756 C20.559,18.953 17.986,18 14.5,18 Z" id="Shape"></path>
        </g>
    </g>
</svg>