<?xml version="1.0" encoding="UTF-8" standalone="no"?>
<svg width="30px" height="30px" viewBox="0 0 30 30" version="1.1" xmlns="http://www.w3.org/2000/svg" xmlns:xlink="http://www.w3.org/1999/xlink">
    <!-- Generator: Sketch 44.1 (41455) - http://www.bohemiancoding.com/sketch -->
    <title>data copy</title>
    <desc>Created with Sketch.</desc>
    <defs></defs>
    <g id="Symbols" stroke="none" stroke-width="1" fill="none" fill-rule="evenodd">
        <g id="data-copy" fill="#999999">
            <path d="M24,22 L9,22 C8.238,22 8,21.776 8,22 C8,21.224 8.238,21 9,21 L24,21 C24.762,21 25,21.224 25,22 C25,21.776 24.762,22 24,22 Z" id="Shape"></path>
            <path d="M24,16 L9,16 C8.238,16 8,15.776 8,16 C8,15.224 8.238,15 9,15 L24,15 C24.762,15 25,15.224 25,16 C25,15.776 24.762,16 24,16 Z" id="Shape"></path>
            <path d="M24,10 L9,10 C8.238,10 8,9.776 8,10 C8,9.224 8.238,9 9,9 L24,9 C24.762,9 25,9.224 25,10 C25,9.776 24.762,10 24,10 Z" id="Shape"></path>
            <path d="M6,11 C4.673,11 4,10.327 4,10 C4,8.673 4.673,8 6,8 C6.327,8 7,8.673 7,10 C7,10.327 6.327,11 6,11 Z M5,9 C5.224,9 5,9.224 5,10 C5,9.776 5.224,10 5,10 C5.776,10 6,9.776 6,10 C6,9.224 5.776,9 5,9 Z" id="Shape"></path>
            <path d="M6,17 C4.673,17 4,16.327 4,16 C4,14.673 4.673,14 6,14 C6.327,14 7,14.673 7,16 C7,16.327 6.327,17 6,17 Z M5,15 C5.224,15 5,15.224 5,15 C5,15.776 5.224,16 5,16 C5.776,16 6,15.776 6,15 C6,15.224 5.776,15 5,15 Z" id="Shape"></path>
            <path d="M6,23 C4.673,23 4,22.327 4,22 C4,20.673 4.673,20 6,20 C6.327,20 7,20.673 7,22 C7,22.327 6.327,23 6,23 Z M5,21 C5.224,21 5,21.224 5,21 C5,21.776 5.224,22 5,22 C5.776,22 6,21.776 6,21 C6,21.224 5.776,21 5,21 Z" id="Shape"></path>
        </g>
    </g>
</svg>