<?xml version="1.0" encoding="UTF-8" standalone="no"?>
<svg width="30px" height="30px" viewBox="0 0 30 30" version="1.1" xmlns="http://www.w3.org/2000/svg" xmlns:xlink="http://www.w3.org/1999/xlink">
    <!-- Generator: Sketch 44.1 (41455) - http://www.bohemiancoding.com/sketch -->
    <title>data copy 3</title>
    <desc>Created with Sketch.</desc>
    <defs></defs>
    <g id="Symbols" stroke="none" stroke-width="1" fill="none" fill-rule="evenodd">
        <g id="data-copy-3" fill="#999999">
            <g id="envelope" transform="translate(6.000000, 9.000000)">
                <path d="M17.5,0 L1.5,0 C0.673,0 0,0.673 0,1.5 L0,10.5 C0,11.327 0.673,12 1.5,12 L17.5,12 C18.327,12 19,11.327 19,10.5 L19,1.5 C19,0.673 18.327,0 17.5,0 Z M17.5,1 C17.53,1 17.558,1.003 17.587,1.008 L10.055,6.029 C9.765,6.222 9.236,6.222 8.946,6.029 L1.414,1.008 C1.442,1.003 1.471,1 1.501,1 L17.501,1 L17.5,1 Z M17.5,11 L1.5,11 C1.224,11 1,10.776 1,10.5 L1,1.934 L8.391,6.861 C8.702,7.068 9.101,7.172 9.5,7.172 C9.899,7.172 10.298,7.068 10.609,6.861 L18,1.934 L18,10.5 C18,10.776 17.776,11 17.5,11 Z" id="Shape"></path>
            </g>
        </g>
    </g>
</svg>