<?xml version="1.0" encoding="UTF-8" standalone="no"?>
<svg width="30px" height="30px" viewBox="0 0 30 30" version="1.1" xmlns="http://www.w3.org/2000/svg" xmlns:xlink="http://www.w3.org/1999/xlink">
    <!-- Generator: Sketch 44.1 (41455) - http://www.bohemiancoding.com/sketch -->
    <title>data copy 4</title>
    <desc>Created with Sketch.</desc>
    <defs></defs>
    <g id="Symbols" stroke="none" stroke-width="1" fill="none" fill-rule="evenodd">
        <g id="data-copy-4" fill="#999999">
            <g id="redo" transform="translate(6.000000, 4.000000)">
                <path d="M1.49,4.49 C3.095,2.885 5.23,2 7.5,2 C9.77,2 11.905,2.884 13.51,4.49 C15.115,6.096 16,8.23 16,10.5 L16,11.793 L18.146,9.647 C18.341,9.452 18.658,9.452 18.853,9.647 C19.048,9.842 19.048,10.159 18.853,10.354 L15.853,13.354 C15.755,13.452 15.627,13.5 15.499,13.5 C15.371,13.5 15.243,13.451 15.145,13.354 L12.145,10.354 C11.95,10.159 11.95,9.842 12.145,9.647 C12.34,9.452 12.657,9.452 12.852,9.647 L14.998,11.793 L14.998,10.5 C14.998,6.364 11.634,3 7.498,3 C3.362,3 -0.002,6.364 -0.002,10.5 C-0.002,14.636 3.362,18 7.498,18 C7.774,18 7.998,18.224 7.998,18.5 C7.998,18.776 7.774,19 7.498,19 C5.228,19 3.093,18.116 1.488,16.51 C-0.117,14.904 -1.002,12.77 -1.002,10.5 C-1.002,8.23 -0.118,6.095 1.488,4.49 L1.49,4.49 Z" id="Shape" transform="translate(8.998625, 10.500000) rotate(-90.000000) translate(-8.998625, -10.500000) "></path>
            </g>
        </g>
    </g>
</svg>