<?xml version="1.0" encoding="UTF-8" standalone="no"?>
<svg width="164px" height="26px" viewBox="0 0 164 26" version="1.1" xmlns="http://www.w3.org/2000/svg" xmlns:xlink="http://www.w3.org/1999/xlink">
    <!-- Generator: sketchtool 44.1 (41455) - http://www.bohemiancoding.com/sketch -->
    <title>7DBB3853-8435-4D2E-A8DA-F3240CE6366A</title>
    <desc>Created with sketchtool.</desc>
    <defs></defs>
    <g id="Page-1" stroke="none" stroke-width="1" fill="none" fill-rule="evenodd">
        <g id="главная" transform="translate(-50.000000, -15.000000)" fill="#000000">
            <g id="header/-max-size-1920">
                <g id="logo" transform="translate(50.000000, 15.000000)">
                    <path d="M25.6969085,24.655202 L19.2119777,24.655202 C18.0630436,23.8458318 16.3041347,21.727218 13.9351984,18.2992972 C13.1771388,17.2042669 12.3894792,16.1538868 11.5721962,15.1481253 C10.7549132,14.1423638 10.1922992,13.5293941 9.88433749,13.3091978 C9.57637576,13.0890014 9.09667335,12.9789049 8.44521585,12.9789049 L7.48580143,12.9789049 L7.48580143,18.3528582 C7.48580143,20.2572587 7.53021832,21.5040271 7.61905343,22.093201 C7.70788855,22.6823749 7.94477863,23.1197854 8.32973078,23.4054454 C8.71468294,23.6911055 9.45200332,23.8339334 10.541714,23.8339334 L11.6965647,23.8339334 L11.6965647,24.655202 L0.165824715,24.655202 L0.165824715,23.8339334 L0.947569801,23.8339334 C1.97805711,23.8339334 2.69168848,23.7030078 3.08848532,23.4411528 C3.48528216,23.1792977 3.73697787,22.7716431 3.84358001,22.2181767 C3.95018214,21.6647103 4.00348241,20.3762837 4.00348241,18.3528582 L4.00348241,6.48017081 C4.00348241,4.55196533 3.95018214,3.30817242 3.84358001,2.74875478 C3.73697787,2.18933714 3.50008779,1.8025116 3.13290266,1.58826654 C2.76571752,1.37402149 1.97213575,1.26690057 0.75213353,1.26690057 L0.343494053,1.26690057 L0.343494053,0.44563197 L3.7902792,0.267095318 C6.08814746,0.159972791 7.91220109,0.106412331 9.26249481,0.106412331 C11.5603631,0.106412331 13.4288336,0.320654171 14.8679624,0.749144279 C16.3070912,1.17763439 17.4708138,1.87987153 18.3591649,2.85587677 C19.247516,3.83188202 19.6916849,4.99830981 19.6916849,6.35519515 C19.6916849,7.93822805 19.1113042,9.28914188 17.9505254,10.4079772 C16.7897466,11.5268124 15.084138,12.2230984 12.8336485,12.496856 C13.8404464,12.9848586 15.4631435,14.7464026 17.7017883,17.7815409 C19.5258693,20.245359 20.9590543,21.858124 22.0013863,22.6198842 C23.0437183,23.3816444 24.2755467,23.7863234 25.6969085,23.8339334 L25.6969085,24.655202 Z M7.48580143,12.1576363 C8.37415256,12.1338313 9.29210162,12.0981244 10.2396762,12.0505144 C11.1872507,12.0029043 12.0104437,11.8719788 12.70928,11.6577337 C13.4081162,11.4434887 13.9736912,11.1310527 14.4060221,10.7204163 C14.838353,10.3097799 15.1788825,9.77119976 15.4276208,9.1046596 C15.6763591,8.43811943 15.8007264,7.61685904 15.8007264,6.6408538 C15.8007264,4.93879587 15.3772854,3.57597972 14.5303907,2.55236447 C13.6834959,1.52874921 11.8387144,1.01694926 8.9959908,1.01694926 C8.55773758,1.01694926 8.05434615,1.04075391 7.48580143,1.08836392 L7.48580143,12.1576363 Z M44.9917986,0.44563197 L53.0402196,0.44563197 L53.0402196,1.26690057 C51.9741983,1.33831559 51.1776554,1.57933766 50.650567,1.98997401 C50.1234787,2.40061036 49.800716,2.86182544 49.6822691,3.37363306 C49.5638223,3.88544069 49.5045998,4.87928478 49.5045998,6.35519515 L49.5045998,14.4071982 C49.5045998,16.4663312 49.4246494,17.9957799 49.2647462,18.9955901 C49.104843,19.9954004 48.6429073,20.9773421 47.8789254,21.9414449 C47.1149434,22.9055476 46.0400546,23.6732476 44.6542269,24.2445677 C43.2683991,24.8158878 41.6693911,25.1015436 39.8571548,25.1015436 C37.7132674,25.1015436 35.8980971,24.7355471 34.4115896,24.0035432 C32.925082,23.2715393 31.8649989,22.3253045 31.2313084,21.1648104 C30.5976179,20.0043164 30.2807775,18.4480875 30.2807775,16.496077 L30.2985444,14.0144175 L30.2985444,6.48017081 C30.2985444,4.55196533 30.242283,3.30817242 30.1297585,2.74875478 C30.017234,2.18933714 29.780344,1.8025116 29.4190812,1.58826654 C29.0578184,1.37402149 28.2671977,1.26690057 27.0471955,1.26690057 L26.4964206,1.26690057 L26.4964206,0.44563197 L37.4941526,0.44563197 L37.4941526,1.26690057 L37.0144454,1.26690057 C35.8299772,1.26690057 35.0541622,1.36509475 34.686977,1.56148605 C34.3197919,1.75787735 34.0740184,2.12387382 33.9496493,2.65948646 C33.8252801,3.19509909 33.7630965,4.46864781 33.7630965,6.48017081 L33.7630965,14.1036859 C33.7630965,16.7460415 33.8845026,18.6206576 34.1273186,19.7275904 C34.3701346,20.8345232 35.0541547,21.801587 36.1793995,22.628811 C37.3046442,23.456035 38.802974,23.8696407 40.6744337,23.8696407 C42.1431743,23.8696407 43.4786421,23.5929117 44.6808773,23.0394453 C45.8831125,22.4859789 46.7773725,21.7956441 47.3636843,20.9684201 C47.949996,20.1411962 48.3082923,19.29018 48.4385838,18.415346 C48.5688753,17.540512 48.63402,16.162818 48.63402,14.2822225 L48.63402,6.03382918 C48.63402,4.66504134 48.5570308,3.70690422 48.4030499,3.15938908 C48.249069,2.61187394 47.9174229,2.1774391 47.4081016,1.85607152 C46.8987803,1.53470394 46.093354,1.33831559 44.9917986,1.26690057 L44.9917986,0.44563197 Z M70.7005518,20.4774443 L79.4774171,0.44563197 L86.8684615,0.44563197 L86.8684615,1.26690057 L85.9801148,1.26690057 C84.7956467,1.26690057 84.0198316,1.36509475 83.6526465,1.56148605 C83.2854614,1.75787735 83.0396879,2.12387382 82.9153188,2.65948646 C82.7909496,3.19509909 82.728766,4.46864781 82.728766,6.48017081 L82.728766,18.3528582 C82.728766,20.2572587 82.776144,21.5040271 82.8709014,22.093201 C82.9656589,22.6823749 83.2055101,23.1197854 83.5904622,23.4054454 C83.9754144,23.6911055 84.7127348,23.8339334 85.8024455,23.8339334 L86.8684615,23.8339334 L86.8684615,24.655202 L75.3554884,24.655202 L75.3554884,23.8339334 L76.2083013,23.8339334 C77.2269439,23.8339334 77.934653,23.7030078 78.3314498,23.4411528 C78.7282467,23.1792977 78.9829035,22.7716431 79.095428,22.2181767 C79.2079525,21.6647103 79.2642139,20.3762837 79.2642139,18.3528582 L79.2642139,2.9451451 L69.7233704,24.655202 L68.8883245,24.655202 L59.2764134,2.9451451 L59.2764134,17.1209553 C59.2764134,19.0610633 59.3356359,20.3822213 59.4540827,21.084469 C59.5725295,21.7867166 59.9397092,22.4026619 60.5556326,22.9323233 C61.1715561,23.4619847 62.0362049,23.7625184 63.1496049,23.8339334 L63.1496049,24.655202 L54.5326421,24.655202 L54.5326421,23.8339334 C55.5631294,23.7744209 56.401128,23.4917407 57.0466632,22.9858843 C57.6921983,22.4800279 58.0860281,21.8581315 58.2281643,21.1201763 C58.3703005,20.3822211 58.4413675,19.0134538 58.4413675,17.0138333 L58.4413675,6.48017081 C58.4413675,4.55196533 58.3851061,3.30817242 58.2725816,2.74875478 C58.1600571,2.18933714 57.9231671,1.8025116 57.5619043,1.58826654 C57.2006415,1.37402149 56.4100208,1.26690057 55.1900186,1.26690057 L54.5326421,1.26690057 L54.5326421,0.44563197 L61.8703857,0.44563197 L70.7005518,20.4774443 Z M103.267341,15.7283694 L94.1173705,15.7283694 L93.4955278,17.2637846 C92.5716426,19.4895527 92.109707,20.9416362 92.109707,21.6200789 C92.109707,22.3461316 92.3554804,22.8966141 92.8470347,23.2715429 C93.338589,23.6464718 93.9693089,23.8339334 94.7392132,23.8339334 L94.7392132,24.655202 L87.5791389,24.655202 L87.5791389,23.8339334 C88.6451602,23.6672984 89.438742,23.2893996 89.959908,22.7002257 C90.481074,22.1110518 91.1088327,20.8702344 91.843203,18.9777365 C91.9024264,18.7991989 92.1866945,18.1088641 92.6960158,16.9067113 L99.6961877,0.106412331 L100.389098,0.106412331 L108.437519,19.3348098 L109.539069,21.8700302 C109.787807,22.4413504 110.122415,22.8906631 110.542901,23.2179819 C110.963387,23.5453008 111.594107,23.7506159 112.435079,23.8339334 L112.435079,24.655202 L102.965304,24.655202 L102.965304,23.8339334 C104.126082,23.8339334 104.910781,23.7476415 105.319422,23.5750553 C105.728064,23.402469 105.932381,23.0602771 105.932381,22.5484695 C105.932381,22.2866144 105.659958,21.5070122 105.115103,20.2096394 L103.267341,15.7283694 Z M102.965304,14.9249545 L98.7012394,4.60553596 L94.4549422,14.9249545 L102.965304,14.9249545 Z M138.659073,24.655202 L132.174143,24.655202 C131.025209,23.8458318 129.2663,21.727218 126.897363,18.2992972 C126.139304,17.2042669 125.351644,16.1538868 124.534361,15.1481253 C123.717078,14.1423638 123.154464,13.5293941 122.846502,13.3091978 C122.538541,13.0890014 122.058838,12.9789049 121.407381,12.9789049 L120.447966,12.9789049 L120.447966,18.3528582 C120.447966,20.2572587 120.492383,21.5040271 120.581218,22.093201 C120.670053,22.6823749 120.906944,23.1197854 121.291896,23.4054454 C121.676848,23.6911055 122.414168,23.8339334 123.503879,23.8339334 L124.65873,23.8339334 L124.65873,24.655202 L113.12799,24.655202 L113.12799,23.8339334 L113.909735,23.8339334 C114.940222,23.8339334 115.653853,23.7030078 116.05065,23.4411528 C116.447447,23.1792977 116.699143,22.7716431 116.805745,22.2181767 C116.912347,21.6647103 116.965647,20.3762837 116.965647,18.3528582 L116.965647,6.48017081 C116.965647,4.55196533 116.912347,3.30817242 116.805745,2.74875478 C116.699143,2.18933714 116.462253,1.8025116 116.095068,1.58826654 C115.727882,1.37402149 114.934301,1.26690057 113.714298,1.26690057 L113.305659,1.26690057 L113.305659,0.44563197 L116.752444,0.267095318 C119.050312,0.159972791 120.874366,0.106412331 122.22466,0.106412331 C124.522528,0.106412331 126.390999,0.320654171 127.830127,0.749144279 C129.269256,1.17763439 130.432979,1.87987153 131.32133,2.85587677 C132.209681,3.83188202 132.65385,4.99830981 132.65385,6.35519515 C132.65385,7.93822805 132.073469,9.28914188 130.91269,10.4079772 C129.751912,11.5268124 128.046303,12.2230984 125.795813,12.496856 C126.802611,12.9848586 128.425308,14.7464026 130.663953,17.7815409 C132.488034,20.245359 133.921219,21.858124 134.963551,22.6198842 C136.005883,23.3816444 137.237712,23.7863234 138.659073,23.8339334 L138.659073,24.655202 Z M120.447966,12.1576363 C121.336317,12.1338313 122.254267,12.0981244 123.201841,12.0505144 C124.149416,12.0029043 124.972609,11.8719788 125.671445,11.6577337 C126.370281,11.4434887 126.935856,11.1310527 127.368187,10.7204163 C127.800518,10.3097799 128.141047,9.77119976 128.389786,9.1046596 C128.638524,8.43811943 128.762891,7.61685904 128.762891,6.6408538 C128.762891,4.93879587 128.33945,3.57597972 127.492556,2.55236447 C126.645661,1.52874921 124.800879,1.01694926 121.958156,1.01694926 C121.519902,1.01694926 121.016511,1.04075391 120.447966,1.08836392 L120.447966,12.1576363 Z M154.436111,15.7283694 L145.28614,15.7283694 L144.664297,17.2637846 C143.740412,19.4895527 143.278476,20.9416362 143.278476,21.6200789 C143.278476,22.3461316 143.52425,22.8966141 144.015804,23.2715429 C144.507358,23.6464718 145.138078,23.8339334 145.907982,23.8339334 L145.907982,24.655202 L138.747908,24.655202 L138.747908,23.8339334 C139.813929,23.6672984 140.607511,23.2893996 141.128677,22.7002257 C141.649843,22.1110518 142.277602,20.8702344 143.011972,18.9777365 C143.071196,18.7991989 143.355464,18.1088641 143.864785,16.9067113 L150.864957,0.106412331 L151.557867,0.106412331 L159.606288,19.3348098 L160.707838,21.8700302 C160.956577,22.4413504 161.291184,22.8906631 161.71167,23.2179819 C162.132156,23.5453008 162.762876,23.7506159 163.603848,23.8339334 L163.603848,24.655202 L154.134073,24.655202 L154.134073,23.8339334 C155.294852,23.8339334 156.07955,23.7476415 156.488192,23.5750553 C156.896833,23.402469 157.101151,23.0602771 157.101151,22.5484695 C157.101151,22.2866144 156.828727,21.5070122 156.283872,20.2096394 L154.436111,15.7283694 Z M154.134073,14.9249545 L149.870009,4.60553596 L145.623712,14.9249545 L154.134073,14.9249545 Z" id="RUMARA-Copy"></path>
                </g>
            </g>
        </g>
    </g>
</svg>