<?xml version="1.0" encoding="UTF-8" standalone="no"?>
<svg width="100px" height="100px" viewBox="0 0 100 100" version="1.1" xmlns="http://www.w3.org/2000/svg" xmlns:xlink="http://www.w3.org/1999/xlink">
    <!-- Generator: Sketch 44.1 (41455) - http://www.bohemiancoding.com/sketch -->
    <title>back</title>
    <desc>Created with Sketch.</desc>
    <defs></defs>
    <g id="Symbols" stroke="none" stroke-width="1" fill="none" fill-rule="evenodd">
        <g id="back" fill="#262626">
            <g id="icon" transform="translate(28.000000, 31.000000)">
                <path d="M5.57750359,5.56588235 C9.1697561,1.97823529 13.9482353,0 19.0288666,0 C24.1094978,0 28.887977,1.976 32.4802296,5.56588235 C36.0724821,9.15576471 38.0532568,13.9258824 38.0532568,19 L38.0532568,21.8902353 L42.8563558,17.0932941 C43.2927977,16.6574118 44.0022956,16.6574118 44.4387374,17.0932941 C44.8751793,17.5291765 44.8751793,18.2377647 44.4387374,18.6736471 L37.7242468,25.3795294 C37.5049067,25.5985882 37.2184218,25.7058824 36.9319369,25.7058824 C36.6454519,25.7058824 36.358967,25.5963529 36.139627,25.3795294 L29.4251363,18.6736471 C28.9886944,18.2377647 28.9886944,17.5291765 29.4251363,17.0932941 C29.8615782,16.6574118 30.571076,16.6574118 31.0075179,17.0932941 L35.8106169,21.8902353 L35.8106169,19 C35.8106169,9.75482353 28.2814347,2.23529412 19.0243902,2.23529412 C9.76734577,2.23529412 2.23816356,9.75482353 2.23816356,19 C2.23816356,28.2451765 9.76734577,35.7647059 19.0243902,35.7647059 C19.6421234,35.7647059 20.143472,36.2654118 20.143472,36.8823529 C20.143472,37.4992941 19.6421234,38 19.0243902,38 C13.943759,38 9.16527977,36.024 5.57302726,32.4341176 C1.98077475,28.8442353 0,24.0741176 0,19 C0,13.9258824 1.97853659,9.15352941 5.57302726,5.56588235 L5.57750359,5.56588235 Z" id="Shape"></path>
            </g>
        </g>
    </g>
</svg>