<?xml version="1.0" encoding="UTF-8" standalone="no"?>
<svg width="100px" height="100px" viewBox="0 0 100 100" version="1.1" xmlns="http://www.w3.org/2000/svg" xmlns:xlink="http://www.w3.org/1999/xlink">
    <!-- Generator: Sketch 44.1 (41455) - http://www.bohemiancoding.com/sketch -->
    <title>call</title>
    <desc>Created with Sketch.</desc>
    <defs></defs>
    <g id="Symbols" stroke="none" stroke-width="1" fill="none" fill-rule="evenodd">
        <g id="call" stroke="#262626" stroke-width="0.5" fill="#262626">
            <path d="M65.6886765,68.0771202 L62.828343,62.7447337 C61.9070868,61.0286069 59.7486027,60.3770481 58.0168474,61.2873345 L56.5879699,62.040648 C55.8172375,62.4471997 54.9324939,62.5299899 54.097427,62.2784612 C53.2624274,62.0249109 52.577136,61.4653552 52.1675761,60.7008765 L45.1876205,47.6939747 C44.7674736,46.911069 44.6799978,46.0126188 44.9410701,45.1647445 C45.1988858,44.3286396 45.7933759,43.6140633 46.5727265,43.2042161 L47.9008942,42.5028216 C48.747159,42.0574647 49.3675049,41.3120859 49.6485292,40.4037499 C49.9281982,39.4947418 49.8347487,38.5325353 49.3847425,37.6951527 L46.5376404,32.3903403 C46.2062599,31.7723411 45.6522186,31.3197874 44.9775141,31.1148637 C44.302877,30.9119577 43.5884719,30.9789429 42.9648006,31.3073453 L40.3065651,32.7089236 C38.6987976,33.5567978 37.3879348,34.9229332 36.6151669,36.5556642 L35.7980158,38.2823495 C34.6700466,40.6664449 34.7415754,43.4787485 35.9888493,45.8044002 L48.5589714,69.2284444 C49.8122177,71.5639837 52.1357462,73.2019614 54.7734215,73.6098575 L56.6556305,73.900798 C57.0830377,73.9671123 57.5158062,74 57.9479665,74 C59.3310351,74 60.7128817,73.6643343 61.939594,73.0180862 L64.5958595,71.617855 C65.220143,71.2901245 65.6774095,70.7403871 65.8835123,70.0704693 C66.0896183,69.4018935 66.0207353,68.6938414 65.6886765,68.0771202 Z M63.943352,69.0226894 C63.8413381,69.3556817 63.6150092,69.6281383 63.3062235,69.791436 L60.6825631,71.1792819 C59.3403242,71.8882219 57.7769791,72.1496882 56.2778037,71.9174609 L54.4200737,71.6293547 C52.2170578,71.2879049 50.2776119,69.9156426 49.2316296,67.9593125 L36.8250717,44.7636638 C35.7843818,42.8177232 35.7248356,40.4640001 36.6654549,38.468643 L37.4719775,36.7588606 C38.1162718,35.3930592 39.2092737,34.250296 40.5502408,33.5414217 L43.1732317,32.1535094 C43.3662046,32.05208 43.5755214,32 43.7874508,32 C43.9156535,32 44.0451952,32.0195134 44.1713882,32.0579407 C44.5056921,32.1593701 44.7803834,32.3844064 44.9445547,32.6920247 L47.7546902,37.9451126 C48.0365487,38.4706409 48.0948224,39.0741559 47.9194646,39.6445723 C47.7441746,40.2142557 47.3562857,40.6819101 46.8264627,40.9615571 L45.5163074,41.655513 C44.4454764,42.2206679 43.6285034,43.2059922 43.2733023,44.3597435 C42.9148844,45.5291469 43.0352504,46.7674788 43.6121607,47.8471063 L50.5012629,60.7264508 C51.0683934,61.7878996 52.0168499,62.5657693 53.1726813,62.9169416 C54.3291796,63.2668514 55.5529982,63.1511022 56.6198776,62.5872138 L58.03017,61.8412431 C58.5527594,61.5654584 59.1519722,61.5088503 59.7164249,61.6799423 C60.2816134,61.8516339 60.7460632,62.2321113 61.0233671,62.7511111 L63.8471662,68.0315064 L63.8478357,68.0315064 C64.0093971,68.3332632 64.0440908,68.6942268 63.943352,69.0226894 Z" id="Phone"></path>
        </g>
    </g>
</svg>