<?xml version="1.0" encoding="UTF-8" standalone="no"?>
<svg width="100px" height="100px" viewBox="0 0 100 100" version="1.1" xmlns="http://www.w3.org/2000/svg" xmlns:xlink="http://www.w3.org/1999/xlink">
    <!-- Generator: Sketch 44.1 (41455) - http://www.bohemiancoding.com/sketch -->
    <title>cart</title>
    <desc>Created with Sketch.</desc>
    <defs></defs>
    <g id="Symbols" stroke="none" stroke-width="1" fill="none" fill-rule="evenodd">
        <g id="cart" fill="#262626">
            <g id="icon" transform="translate(22.000000, 35.000000)">
                <g id="shopping-cart">
                    <path d="M47.6247318,10.3224421 C47.2740519,9.83720345 46.7110147,9.54735608 46.1184625,9.54735608 L17.4246796,9.54735608 C16.9969155,9.54735608 16.6507261,9.89663984 16.6507261,10.3273561 C16.6507261,10.7581497 16.9969155,11.1073561 17.4246796,11.1073561 L46.1184625,11.1073561 C46.2189238,11.1073561 46.3119509,11.1557163 46.3738686,11.2406583 C46.4358601,11.3267697 46.4539731,11.4390905 46.4222407,11.5430636 L42.1178979,25.5830651 C41.9456166,26.1437288 41.4459527,26.52 40.8745426,26.52 L15.9947239,26.52 C15.3590755,26.52 14.8111163,26.076647 14.6614341,25.442897 L8.98224065,1.32350416 C8.80012932,0.544284156 8.12067548,0 7.3300823,0 L0.774154639,0 C0.346313305,0 0.000201227906,0.349284156 0.000201227906,0.78 C0.000201227906,1.21071584 0.346313305,1.56 0.774154639,1.56 L7.33008191,1.56 C7.39811258,1.56 7.45933199,1.61101208 7.47589498,1.68261592 L13.1558627,25.8024789 C13.4710168,27.1438447 14.6387567,28.08 15.9947239,28.08 L40.8745427,28.08 C42.1292735,28.08 43.2228714,27.2619349 43.5963025,26.0438871 L47.9006452,12.0042783 C48.0767203,11.4333955 47.973165,10.8042485 47.6247318,10.3224421 Z" id="Shape"></path>
                    <path d="M22.1190947,20.28 C21.6912538,20.28 21.3451412,20.628894 21.3451412,21.06 C21.3451412,21.491106 21.6912538,21.84 22.1190947,21.84 L38.2496776,21.84 C38.6774416,21.84 39.023631,21.491106 39.023631,21.06 C39.023631,20.628894 38.6774416,20.28 38.2496776,20.28 L22.1190947,20.28 Z" id="Shape"></path>
                    <path d="M40.636473,16.38 C40.636473,15.9492838 40.2903604,15.6 39.8625195,15.6 L20.5061758,15.6 C20.078335,15.6 19.7322223,15.9492838 19.7322223,16.38 C19.7322223,16.8107162 20.078335,17.16 20.5061758,17.16 L39.8625195,17.16 C40.2903604,17.16 40.636473,16.8107162 40.636473,16.38 Z" id="Shape"></path>
                    <path d="M22.4448519,31.2 C20.3111389,31.2 18.5750845,32.9496948 18.5750845,35.1 C18.5750845,37.2503052 20.3111389,39 22.4448519,39 C24.5784881,39 26.3146194,37.2503052 26.3146194,35.1 C26.3146194,32.9496948 24.5784881,31.2 22.4448519,31.2 Z M22.4448519,37.44 C21.1645001,37.44 20.1229915,36.3903545 20.1229915,35.1 C20.1229915,33.8096455 21.1645001,32.76 22.4448519,32.76 C23.7252037,32.76 24.7667124,33.8096455 24.7667124,35.1 C24.7667124,36.3903545 23.7252037,37.44 22.4448519,37.44 Z" id="Shape"></path>
                    <path d="M34.8281077,31.2 C32.6943947,31.2 30.9583403,32.9496948 30.9583403,35.1 C30.9583403,37.2503052 32.6943947,39 34.8281077,39 C36.961741,39 38.6978752,37.2503052 38.6978752,35.1 C38.6978752,32.9496948 36.961741,31.2 34.8281077,31.2 Z M34.8281077,37.44 C33.5477559,37.44 32.5062473,36.3903545 32.5062473,35.1 C32.5062473,33.8096455 33.5477559,32.76 34.8281077,32.76 C36.1084595,32.76 37.1499682,33.8096455 37.1499682,35.1 C37.1499682,36.3903545 36.1084595,37.44 34.8281077,37.44 Z" id="Shape"></path>
                </g>
            </g>
        </g>
    </g>
</svg>