<?xml version="1.0" encoding="UTF-8" standalone="no"?>
<svg width="100px" height="100px" viewBox="0 0 100 100" version="1.1" xmlns="http://www.w3.org/2000/svg" xmlns:xlink="http://www.w3.org/1999/xlink">
    <!-- Generator: Sketch 44.1 (41455) - http://www.bohemiancoding.com/sketch -->
    <title>comfortable</title>
    <desc>Created with Sketch.</desc>
    <defs></defs>
    <g id="Symbols" stroke="none" stroke-width="1" fill="none" fill-rule="evenodd">
        <g id="comfortable" stroke-width="2" stroke="#262626">
            <g id="icon" transform="translate(31.000000, 21.000000)">
                <g>
                    <path d="M22.7202937,57.9334583 L22.7202937,57.9337228 L22.7202937,57.9334583 Z M32.7290248,28.6414496 C32.6355198,27.5835452 31.5939454,26.7098715 30.4070832,26.6936041 L22.5519256,26.5859489 C22.095645,26.5797329 21.6331505,26.2206618 21.562282,25.8176821 L19.8315523,15.981909 C19.7688211,15.6256152 19.3971684,14.1729309 17.3683176,14.1729309 L7.6000068,14.5531628 C6.3131298,14.603155 5.26696893,15.1624596 5.26696893,16.7321892 C5.26696893,16.7321892 5.22583858,38.5937389 5.17583117,39.3859438 L4.83406457,44.7948916 C4.78834774,45.5172661 4.47350821,46.6865289 4.1465367,47.3481985 L0.192696621,55.3478812 C-0.0682887815,55.8757093 -0.0639982052,56.4592165 0.204532694,56.9488229 C0.473063592,57.4384294 0.986305294,57.7989554 1.61302534,57.9380872 L2.92934457,58.2301053 C3.12523158,58.273617 3.33029154,58.2955713 3.53860642,58.2955713 C4.60118984,58.2955713 5.61761258,57.7443342 6.06797515,56.9238268 L9.82637207,50.0756847 C10.2416703,49.3193208 10.7583148,48.0373771 10.9783178,47.21806 L13.0990462,39.3210068 L18.2313152,46.33698 C18.6544548,46.9154615 19.1018584,48.0254742 19.1887056,48.7124045 L20.1808644,56.5672685 C20.3220095,57.6853487 21.4612315,58.5949957 22.7202937,58.5949957 L24.2214037,58.5903668 C24.865434,58.5883829 25.4510237,58.3586567 25.8703165,57.9432451 C26.2894615,57.5279657 26.4854964,56.9838704 26.4218775,56.4110758 L25.3856294,47.0723155 C25.2900531,46.2110737 24.9439959,44.9032081 24.5977908,44.0948681 L19.9990327,33.3575156 L19.9706261,31.0939785 L30.6587477,30.7403298 C31.2554337,30.7206238 31.8006328,30.4922202 32.1938863,30.097308 C32.5871398,29.7025281 32.7778486,29.1920254 32.7308002,28.659304 L32.7290248,28.6414496 L32.7290248,28.6414496 Z" id="Fill-1" fill="#FFFFFF"></path>
                    <ellipse id="Oval-3" cx="10.5347222" cy="6.58737864" rx="7.11805556" ry="6.58737864"></ellipse>
                    <path d="M40.9904737,22.1287007 L40.2921454,13.1561533 C40.209145,12.0905781 39.1696419,11.2237816 37.9706477,11.2237816 L24.5531278,11.2446778 C23.9524471,11.2456036 23.4002943,11.4586657 22.9983117,11.8445846 C22.596477,12.2303712 22.3979269,12.737832 22.439797,13.2735953 L23.1381253,22.2461427 C23.2211257,23.3117179 24.2606288,24.1785144 25.4556283,24.1785144 L38.8771429,24.1576182 C39.4778236,24.1566924 40.0299764,23.9437625 40.431959,23.5578436 C40.8337937,23.1719248 41.0321959,22.6643317 40.9904737,22.1287007 L40.9904737,22.1287007 Z" id="Fill-4" fill="#FFFFFF"></path>
                </g>
            </g>
        </g>
    </g>
</svg>