<?xml version="1.0" encoding="UTF-8" standalone="no"?>
<svg width="100px" height="100px" viewBox="0 0 100 100" version="1.1" xmlns="http://www.w3.org/2000/svg" xmlns:xlink="http://www.w3.org/1999/xlink">
    <!-- Generator: Sketch 44.1 (41455) - http://www.bohemiancoding.com/sketch -->
    <title>confid</title>
    <desc>Created with Sketch.</desc>
    <defs></defs>
    <g id="Symbols" stroke="none" stroke-width="1" fill="none" fill-rule="evenodd">
        <g id="confid" fill="#262626">
            <g id="icon" transform="translate(30.000000, 24.000000)">
                <g id="locked-outlined-padlock-security-tool-symbol">
                    <path d="M34.4390303,13.3624899 C33.8227778,4.90178788 27.575096,0 19.9708182,0 C12.3666061,0 6.1189899,4.90178788 5.50260606,13.3624899 C2.41162626,14.0476818 0.0885,16.8403838 0.0885,20.1790859 L0.0885,45.0151919 C0.0885,48.8662778 3.17639394,52 6.97081818,52 L32.9708182,52 C36.7653081,52 39.8530707,48.8662778 39.8530707,45.0151919 L39.8530707,20.1790859 C39.8531364,16.8403838 37.5300101,14.0476818 34.4390303,13.3624899 Z M19.9708182,1.55238384 C26.6497323,1.55238384 32.1633737,6.27217172 32.885202,13.1942778 L7.0565,13.1942778 C7.77839394,6.27210606 13.291904,1.55238384 19.9708182,1.55238384 Z M38.323798,45.0151919 C38.323798,48.0097222 35.9226061,50.4476162 32.9708838,50.4476162 L6.97081818,50.4476162 C4.0190303,50.4476162 1.61790404,48.0097222 1.61790404,45.0151919 L1.61790404,20.1790859 C1.61790404,17.1844899 4.01909596,14.746596 6.97081818,14.746596 L32.9708182,14.746596 C35.9225404,14.746596 38.3237323,17.1844242 38.3237323,20.1790859 L38.3237323,45.0151919 L38.323798,45.0151919 Z M19.9708182,20.1790859 C16.1763939,20.1790859 13.0884343,23.3128081 13.0884343,27.1638939 C13.0884343,29.5543838 14.3043283,31.7582778 16.2971364,33.0383838 C16.1977323,33.9086616 16.1472424,34.8017879 16.1472424,35.7011515 C16.1472424,40.3290859 17.4610303,45.0151919 19.9707525,45.0151919 C22.4804747,45.0151919 23.7942626,40.3290859 23.7942626,35.7011515 C23.7942626,34.8002778 23.7438384,33.9071515 23.6443687,33.0383838 C25.6357323,31.7597879 26.8530707,29.5544495 26.8530707,27.1638939 C26.8531364,23.3128081 23.7653737,20.1790859 19.9708182,20.1790859 Z M22.463798,31.9402778 L21.9896919,32.1956818 L22.0646061,32.7340657 C22.1976919,33.6944899 22.2650556,34.694702 22.2650556,35.7026616 C22.2650556,40.3688737 20.8839697,43.4643838 19.9708838,43.4643838 C19.057798,43.4643838 17.6767778,40.3689394 17.6767778,35.702596 C17.6767778,34.694702 17.7440758,33.696 17.8771616,32.734 L17.9521414,32.1956818 L17.4780354,31.9402778 C15.7146313,30.9889798 14.6180354,29.1582778 14.6180354,27.1638939 C14.6180354,24.169298 17.0192273,21.7314697 19.9709495,21.7314697 C22.9226717,21.7314697 25.3239293,24.169298 25.3239293,27.1638939 C25.323798,29.1597879 24.2271364,30.9889141 22.463798,31.9402778 Z" id="Shape"></path>
                </g>
            </g>
        </g>
    </g>
</svg>