<?xml version="1.0" encoding="UTF-8" standalone="no"?>
<svg width="100px" height="100px" viewBox="0 0 100 100" version="1.1" xmlns="http://www.w3.org/2000/svg" xmlns:xlink="http://www.w3.org/1999/xlink">
    <!-- Generator: Sketch 44.1 (41455) - http://www.bohemiancoding.com/sketch -->
    <title>economicaly</title>
    <desc>Created with Sketch.</desc>
    <defs></defs>
    <g id="Symbols" stroke="none" stroke-width="1" fill="none" fill-rule="evenodd">
        <g id="economicaly">
            <g id="icon" transform="translate(30.000000, 29.000000)">
                <g>
                    <path d="M40.1439511,19.6631186 L38.1985941,19.6631186 L38.1985941,10.347003 C38.1985941,8.11349231 36.4531918,6.29671664 34.3074262,6.29671664 L31.6721426,6.29671664 L28.9754044,1.25004754 C28.5644455,0.478812007 27.7821855,0 26.9342327,0 C26.5387131,0 26.146675,0.105877482 25.800198,0.30597332 L15.4511473,6.29671664 L3.89116798,6.29671664 C1.74540234,6.29671664 0,8.11349231 0,10.347003 L0,38.1592215 C0,40.392102 1.74540234,42.2096654 3.89116798,42.2096654 L34.3074262,42.2096654 C36.4531918,42.2096654 38.1985941,40.392102 38.1985941,38.1592215 L38.1985941,29.9910573 L40.1439511,29.9910573 L40.1439511,19.6631186 Z M34.3074262,7.91654759 C35.5059428,7.91654759 36.4845246,8.86440315 36.6163644,10.0774251 L33.6919716,10.0774251 L32.5384107,7.91654759 L34.3074262,7.91654759 Z M26.5576339,1.72208465 C26.9224262,1.50906924 27.4137605,1.658117 27.614926,2.03656598 L31.9109983,10.0761646 L12.1235153,10.0761646 L26.5576339,1.72208465 Z M36.6417939,38.1592215 C36.6417939,39.4990758 35.5946433,40.5890467 34.3074262,40.5890467 L3.89116798,40.5890467 C2.60395078,40.5890467 1.55619473,39.4990758 1.55619473,38.1592215 L1.55619473,10.347003 C1.55619473,9.00714868 2.60395078,7.91654759 3.89116798,7.91654759 L12.6526911,7.91654759 L8.92000346,10.0774251 L4.37780994,10.0774251 C3.94732479,10.0774251 3.59903143,10.4399609 3.59903143,10.8874193 C3.59903143,11.3348777 3.94732479,11.697256 4.37780994,11.697256 L36.6417939,11.697256 L36.6417939,19.6637488 L30.9508832,19.6637488 C28.30788,19.6637488 26.1568165,21.9027739 26.1568165,24.6538554 L26.1568165,25.0022112 C26.1568165,27.7532926 28.30788,29.9923178 30.9508832,29.9923178 L36.6417939,29.9923178 L36.6417939,38.1592215 Z M38.5877563,28.3710688 L30.9508832,28.3710688 C29.1652175,28.3710688 27.7130112,26.8596363 27.7130112,25.0009508 L27.7130112,24.6525949 C27.7130112,22.7945396 29.1652175,21.2829495 30.9508832,21.2829495 L38.5877563,21.2829495 L38.5877563,28.3710688 Z M33.3342936,24.8931826 C33.3342936,25.8816876 32.5656566,26.6817558 31.6159858,26.6817558 C30.6664663,26.6817558 29.8978293,25.8816876 29.8978293,24.8931826 C29.8978293,23.9054654 30.6670718,23.104767 31.6159858,23.104767 C32.5656566,23.104767 33.3342936,23.9060957 33.3342936,24.8931826 Z" id="Fill-1" fill="#262626"></path>
                    <text id="" font-family="LastResort, .LastResort" font-size="24" font-weight="normal" fill="#E51C23">
                        <tspan x="29" y="48.3333333"></tspan>
                    </text>
                </g>
            </g>
        </g>
    </g>
</svg>