<?xml version="1.0" encoding="UTF-8" standalone="no"?>
<svg width="100px" height="100px" viewBox="0 0 100 100" version="1.1" xmlns="http://www.w3.org/2000/svg" xmlns:xlink="http://www.w3.org/1999/xlink">
    <!-- Generator: Sketch 44.1 (41455) - http://www.bohemiancoding.com/sketch -->
    <title>economy</title>
    <desc>Created with Sketch.</desc>
    <defs></defs>
    <g id="Symbols" stroke="none" stroke-width="1" fill="none" fill-rule="evenodd">
        <g id="economy" fill="#262626">
            <path d="M47.8982179,31.5993925 C53.4126612,32.5978607 58.6402456,29.247979 57.0821366,25.713484 L57.0804108,25.7096725 C49.0265286,27.7137351 41.8542112,25.4482478 42.6828993,25.6471128 C41.4665899,28.7261237 44.6209218,31.0058632 47.8982179,31.5993925 Z M49.8830561,46.7257306 C48.6413934,46.7948368 47.0887542,47.0512075 46.3460751,48.0398154 C45.6523689,48.9630453 45.4871437,51.2452696 46.1499443,52.2212024 C46.5044222,52.743303 47.0834503,53.045745 47.6875866,53.2369053 C48.3958074,53.4609576 49.1418704,53.5443984 49.883056,53.5814375 L49.883056,46.7257306 L49.8830561,46.7257306 Z M51.5402664,55.260769 L51.5402664,63.0578539 C57.1828958,62.637505 56.4864539,56.5900181 53.3363482,55.5662771 C52.7572348,55.3780185 52.1477991,55.295074 51.5402664,55.260769 Z M49.8830561,45.0855083 C49.8830561,43.6549232 49.675739,42.6620071 50.711662,42.6082296 C51.2186822,42.6340824 51.5162343,42.9661876 51.5402664,43.4273877 L51.5402664,45.0908123 C55.1727849,45.3211643 56.4596055,47.2022609 56.3726023,48.7780187 C56.2834435,49.8359809 54.6792679,49.801758 54.7194553,48.6625108 C54.7653575,47.3598621 52.9070477,46.8317099 51.5402664,46.7330227 L51.5402664,53.6212106 C54.9542799,53.7990288 57.1450412,55.3701448 57.328315,58.7085091 C57.5304941,62.3824602 55.3222627,64.4710399 51.5402664,64.699982 C51.5402664,66.1567534 51.6723435,66.6098332 51.2661617,66.9716017 C50.7759606,67.4076949 49.9253154,67.153314 49.8830561,66.3629088 L49.8830561,64.7081024 C47.8671576,64.6277277 45.2534776,64.1702574 44.3710973,62.3532917 C43.2457689,60.0388359 45.6427567,59.568188 45.7446744,61.1829714 C45.8751933,62.6701504 48.3912369,62.9989415 49.8830561,63.0679623 L49.8830561,55.2220735 C46.1907955,55.0425991 43.9463547,53.7702774 44.0924377,50.1211865 C44.2272522,46.7355087 46.1550002,45.3306089 49.6411038,45.0992628 C49.7217266,45.0939605 49.8024332,45.0893204 49.8830561,45.0855083 Z M49.4001455,34.0054939 C42.4605143,37.7792063 34.2528445,44.2936112 32.1674131,51.9462685 C30.8916113,56.6275526 31.999385,62.4342472 35.6112708,66.9208909 C52.7411625,88.2016893 90.4769649,55.6978571 50.1761347,34.01204 C49.9175269,34.010217 49.6588362,34.0079799 49.4001455,34.0054939 Z M44.857156,32.3549965 C39.13092,29.6948454 40.3560118,24.0611644 42.6244815,24.0000133 C43.4530859,23.9941302 48.9802912,25.9416818 56.2808769,24.2176048 C57.1094813,24.021557 57.8237378,23.9218759 58.4060817,24.7119503 C59.5135921,26.2149557 59.5649658,30.1926709 54.9098665,32.3535888 C55.7914187,32.5508796 55.7684676,33.8669516 54.7768885,33.9680411 C52.9427593,34.0300211 53.0330781,33.6216843 55.8831472,35.5640158 C90.6914911,59.2903579 51.6395306,90.0024102 34.166834,67.7553798 C30.3848354,62.9400272 29.156512,56.6967431 30.5672108,51.5202037 C32.3608082,44.9371066 38.1116541,39.437826 43.7338167,35.5640159 C46.5539714,33.6209392 46.6795877,33.9699472 45.0458295,33.9699472 C44.1695797,33.9399514 43.9288711,32.8637604 44.6152867,32.4509493 C44.6916842,32.4050442 44.7725568,32.3743861 44.857156,32.3549965 Z" id="Money-bag"></path>
        </g>
    </g>
</svg>