<?xml version="1.0" encoding="UTF-8" standalone="no"?>
<svg width="100px" height="100px" viewBox="0 0 100 100" version="1.1" xmlns="http://www.w3.org/2000/svg" xmlns:xlink="http://www.w3.org/1999/xlink">
    <!-- Generator: Sketch 44.1 (41455) - http://www.bohemiancoding.com/sketch -->
    <title>edit</title>
    <desc>Created with Sketch.</desc>
    <defs></defs>
    <g id="Symbols" stroke="none" stroke-width="1" fill="none" fill-rule="evenodd">
        <g id="edit" stroke="#262626" stroke-width="0.5" fill="#262626">
            <g id="icon" transform="translate(27.000000, 32.000000)">
                <path d="M0,0 L0,27.9707299 L45.871964,27.9707299 L45.871964,0 L0,0 Z M44.7531229,26.8518887 L1.11884119,26.8518887 L1.11884119,1.11884119 L44.7531229,1.11884119 L44.7531229,26.8518887 Z M23.4954401,29.0895711 L22.3765989,29.0895711 L22.3765989,34.6837021 L15.6636267,34.6837021 L15.6636267,35.8025433 L30.2084123,35.8025433 L30.2084123,34.6837021 L23.4954401,34.6837021 L23.4954401,29.0895711 L23.4954401,29.0895711 Z M20.1389165,4.4752898 L4.47536475,4.4752898 L4.47536475,12.3071032 L20.1389915,12.3071032 L20.1389915,4.4752898 L20.1389165,4.4752898 Z M19.0200753,11.188262 L5.59413099,11.188262 L5.59413099,5.59413099 L19.0200753,5.59413099 L19.0200753,11.188262 Z M20.1389165,15.6635518 L4.47536475,15.6635518 L4.47536475,23.4952902 L20.1389915,23.4952902 L20.1389915,15.6635518 L20.1389165,15.6635518 Z M19.0200753,22.376524 L5.59413099,22.376524 L5.59413099,16.782393 L19.0200753,16.782393 L19.0200753,22.376524 Z M37.4360199,3.57688888 L36.4077983,3.13495898 L33.3768008,10.2071116 L30.6043953,7.43575543 L29.8133287,8.22674699 L33.7538204,12.168363 L37.4360199,3.57688888 Z M37.4360199,14.7651509 L36.4077983,14.323221 L33.3768008,21.3952987 L30.6043953,18.6239424 L29.8133287,19.415009 L33.7538204,23.3555006 L37.4360199,14.7651509 Z" id="Shape"></path>
            </g>
        </g>
    </g>
</svg>