<?xml version="1.0" encoding="UTF-8" standalone="no"?>
<svg width="100px" height="100px" viewBox="0 0 100 100" version="1.1" xmlns="http://www.w3.org/2000/svg" xmlns:xlink="http://www.w3.org/1999/xlink">
    <!-- Generator: Sketch 44.1 (41455) - http://www.bohemiancoding.com/sketch -->
    <title>eff</title>
    <desc>Created with Sketch.</desc>
    <defs></defs>
    <g id="Symbols" stroke="none" stroke-width="1" fill="none" fill-rule="evenodd">
        <g id="eff" fill="#262626">
            <g id="icon" transform="translate(27.000000, 28.000000)">
                <g id="cog">
                    <path d="M17.4444627,45.7521412 C17.3483137,45.7521412 17.2498196,45.7404157 17.1513255,45.7146196 C15.0454275,45.172902 13.0216078,44.3380471 11.1384941,43.2311608 C10.5920863,42.9098824 10.3997882,42.2133882 10.7023059,41.6576 C11.0751765,40.9728314 11.2721647,40.198949 11.2721647,39.4133412 C11.2721647,36.826698 9.16861176,34.7231451 6.58196863,34.7231451 C5.79870588,34.7231451 5.02247843,34.9201333 4.3377098,35.2930039 C3.78192157,35.5955216 3.08542745,35.4032235 2.76414902,34.8568157 C1.65726275,32.9713569 0.822407843,30.9498824 0.280690196,28.8439843 C0.128258824,28.2483294 0.461262745,27.6362588 1.04284706,27.4416157 C2.95175686,26.7990588 4.23687059,25.0120941 4.23687059,22.9976549 C4.23687059,20.9832157 2.95410196,19.196251 1.04284706,18.5536941 C0.461262745,18.3567059 0.128258824,17.7469804 0.280690196,17.1513255 C0.822407843,15.0454275 1.65726275,13.0216078 2.76414902,11.1384941 C3.08542745,10.5920863 3.78192157,10.3997882 4.3377098,10.7023059 C5.02013333,11.0751765 5.79636078,11.2721647 6.58196863,11.2721647 C9.16861176,11.2721647 11.2721647,9.16861176 11.2721647,6.58196863 C11.2721647,5.79870588 11.0751765,5.02247843 10.7023059,4.3377098 C10.3997882,3.78192157 10.5920863,3.08542745 11.1384941,2.76414902 C13.0239529,1.65726275 15.0454275,0.822407843 17.1513255,0.280690196 C17.7469804,0.128258824 18.359051,0.461262745 18.5536941,1.04284706 C19.196251,2.95175686 20.9832157,4.23687059 22.9976549,4.23687059 C25.0120941,4.23687059 26.7990588,2.95410196 27.4416157,1.04284706 C27.6386039,0.461262745 28.2506745,0.128258824 28.8439843,0.280690196 C30.9498824,0.822407843 32.973702,1.65726275 34.8568157,2.76414902 C35.4032235,3.08542745 35.5955216,3.78192157 35.2930039,4.3377098 C34.9201333,5.02247843 34.7231451,5.79636078 34.7231451,6.58196863 C34.7231451,9.16861176 36.826698,11.2721647 39.4133412,11.2721647 C40.1966039,11.2721647 40.9728314,11.0751765 41.6576,10.7023059 C42.2133882,10.3997882 42.9098824,10.5920863 43.2311608,11.1384941 C44.3380471,13.0239529 45.172902,15.0454275 45.7146196,17.1513255 C45.867051,17.7469804 45.5340471,18.359051 44.9524627,18.5536941 C43.0435529,19.196251 41.7584392,20.9832157 41.7584392,22.9976549 C41.7584392,25.0120941 43.0412078,26.7990588 44.9524627,27.4416157 C45.5340471,27.6386039 45.867051,28.2483294 45.7146196,28.8439843 C45.172902,30.9498824 44.3380471,32.973702 43.2311608,34.8568157 C42.9098824,35.4032235 42.2133882,35.5955216 41.6576,35.2930039 C40.9728314,34.9201333 40.198949,34.7231451 39.4133412,34.7231451 C36.826698,34.7231451 34.7231451,36.826698 34.7231451,39.4133412 C34.7231451,40.1966039 34.9201333,40.9728314 35.2930039,41.6576 C35.5955216,42.2133882 35.4032235,42.9098824 34.8568157,43.2311608 C32.9713569,44.3380471 30.9498824,45.172902 28.8439843,45.7146196 C28.2483294,45.867051 27.6362588,45.5340471 27.4416157,44.9524627 C26.7990588,43.0435529 25.0120941,41.7584392 22.9976549,41.7584392 C20.9832157,41.7584392 19.196251,43.0412078 18.5536941,44.9524627 C18.3895373,45.437898 17.9345882,45.7521412 17.4421176,45.7521412 L17.4444627,45.7521412 Z M23,39.4156863 C25.6429255,39.4156863 28.0232,40.8884078 29.2262353,43.1725333 C30.4456863,42.7949725 31.6323059,42.3071922 32.7673333,41.7138824 C32.5140627,40.9775216 32.3827373,40.198949 32.3827373,39.4156863 C32.3827373,35.5368941 35.5392392,32.3803922 39.4180314,32.3803922 C40.2012941,32.3803922 40.9798667,32.5117176 41.7162275,32.7649882 C42.3095373,31.6299608 42.7996627,30.4456863 43.1748784,29.2238902 C40.8907529,28.0232 39.4180314,25.6429255 39.4180314,22.9976549 C39.4180314,20.3523843 40.8907529,17.9744549 43.1748784,16.7714196 C42.7973176,15.5519686 42.3095373,14.365349 41.7162275,13.2303216 C40.9798667,13.4835922 40.2012941,13.6149176 39.4180314,13.6149176 C35.5392392,13.6149176 32.3827373,10.4584157 32.3827373,6.57962353 C32.3827373,5.79636078 32.5140627,5.01778824 32.7673333,4.28142745 C31.6323059,3.68811765 30.4480314,3.19799216 29.2262353,2.82277647 C28.0255451,5.10690196 25.6452706,6.57962353 23,6.57962353 C20.3547294,6.57962353 17.9768,5.10690196 16.7737647,2.82277647 C15.5543137,3.19799216 14.3676941,3.68811765 13.2326667,4.28142745 C13.4859373,5.01778824 13.6172627,5.79636078 13.6172627,6.57962353 C13.6172627,10.4584157 10.4607608,13.6149176 6.58196863,13.6149176 C5.79870588,13.6149176 5.02013333,13.4835922 4.28377255,13.2303216 C3.69046275,14.365349 3.20033725,15.5496235 2.82512157,16.7714196 C5.10924706,17.9721098 6.58196863,20.3523843 6.58196863,22.9976549 C6.58196863,25.6429255 5.10924706,28.0208549 2.82512157,29.2238902 C3.20033725,30.4433412 3.69046275,31.6299608 4.28377255,32.7649882 C5.02013333,32.5117176 5.79870588,32.3803922 6.58196863,32.3803922 C10.4607608,32.3803922 13.6172627,35.5368941 13.6172627,39.4156863 C13.6172627,40.198949 13.4859373,40.9775216 13.2326667,41.7138824 C14.3676941,42.3071922 15.5519686,42.7973176 16.7737647,43.1725333 C17.9744549,40.8884078 20.3547294,39.4156863 23,39.4156863 L23,39.4156863 Z" id="Shape"></path>
                    <path d="M23,30.0352941 C19.1212078,30.0352941 15.9647059,26.8787922 15.9647059,23 C15.9647059,19.1212078 19.1212078,15.9647059 23,15.9647059 C26.8787922,15.9647059 30.0352941,19.1212078 30.0352941,23 C30.0352941,26.8787922 26.8787922,30.0352941 23,30.0352941 Z M23,18.3098039 C20.4133569,18.3098039 18.3098039,20.4133569 18.3098039,23 C18.3098039,25.5866431 20.4133569,27.6901961 23,27.6901961 C25.5866431,27.6901961 27.6901961,25.5866431 27.6901961,23 C27.6901961,20.4133569 25.5866431,18.3098039 23,18.3098039 Z" id="Shape"></path>
                </g>
            </g>
        </g>
    </g>
</svg>