<?xml version="1.0" encoding="UTF-8" standalone="no"?>
<svg width="100px" height="100px" viewBox="0 0 100 100" version="1.1" xmlns="http://www.w3.org/2000/svg" xmlns:xlink="http://www.w3.org/1999/xlink">
    <!-- Generator: Sketch 44.1 (41455) - http://www.bohemiancoding.com/sketch -->
    <title>fast</title>
    <desc>Created with Sketch.</desc>
    <defs></defs>
    <g id="Symbols" stroke="none" stroke-width="1" fill="none" fill-rule="evenodd">
        <g id="fast" fill="#262626">
            <g id="icon" transform="translate(28.000000, 23.000000)">
                <g>
                    <g id="Group-3">
                        <path d="M37.0753354,14.322916 L39.9730335,11.4207939 L38.3600305,9.80519084 L35.2425457,12.9268855 C31.9059604,10.6183511 27.9111128,9.18961832 23.6302134,8.96949618 L23.6302134,2.40746565 L27.395122,2.40746565 L27.395122,0.120916031 L17.5716768,0.120916031 L17.5716768,2.40746565 L21.3365854,2.40746565 L21.3365854,8.95877863 C9.53780488,9.55250382 0,19.2694809 0,31.3390992 C0,43.804855 10.1631402,53.8627328 22.4892988,53.8627328 C34.8149085,53.8627328 44.9780488,43.6835267 44.9780488,31.3390992 C44.9780488,24.546229 41.9050152,18.4343359 37.0753354,14.322916 Z M22.4892988,51.5870382 C11.414497,51.5870382 2.28306402,42.6723664 2.28306402,31.4598779 C2.28306402,20.2479389 11.414497,11.2120763 22.4892988,11.2120763 C33.5635518,11.2120763 42.6949848,20.1272977 42.6949848,31.3390992 C42.6949848,42.5515878 33.5635518,51.5870382 22.4892988,51.5870382 Z" id="Fill-1"></path>
                    </g>
                    <polygon id="Fill-4" points="21 18 23 18 23 13 21 13"></polygon>
                    <polygon id="Fill-5" points="21 50 23 50 23 45 21 45"></polygon>
                    <polygon id="Fill-6" points="36 32 41 32 41 30 36 30"></polygon>
                    <polygon id="Fill-7" points="4 32 9 32 9 30 4 30"></polygon>
                    <polygon id="Fill-8" points="13.655706 20 24 30.344978 22.3448567 32 12 21.655022"></polygon>
                </g>
            </g>
        </g>
    </g>
</svg>