<?xml version="1.0" encoding="UTF-8" standalone="no"?>
<svg width="100px" height="100px" viewBox="0 0 100 100" version="1.1" xmlns="http://www.w3.org/2000/svg" xmlns:xlink="http://www.w3.org/1999/xlink">
    <!-- Generator: Sketch 44.1 (41455) - http://www.bohemiancoding.com/sketch -->
    <title>fisical faces</title>
    <desc>Created with Sketch.</desc>
    <defs></defs>
    <g id="Symbols" stroke="none" stroke-width="1" fill="none" fill-rule="evenodd">
        <g id="fisical-faces" stroke="#262626" stroke-width="0.5" fill="#262626">
            <g id="icon" transform="translate(0.000000, 26.000000)">
                <g id="handshake" transform="translate(26.000000, 0.000000)">
                    <path d="M13,23.0346419 C13,23.4771386 13.1688212,23.8923973 13.4742712,24.2042291 L14.0454987,24.7890227 C14.8090289,25.5698137 15.8222404,26 16.9016359,26 C17.981126,26 18.995095,25.5699106 19.7586252,24.7890227 L23.7831607,20.668908 C25.3772574,22.0320693 27.3673217,22.7739905 29.4680715,22.7739905 L29.4721429,22.7739905 C31.8467182,22.7723426 34.0816349,21.8235676 35.7630301,20.1014653 C36.07899,19.7780986 36.07899,19.2544694 35.7630301,18.9318782 C35.4470702,18.6084145 34.9364404,18.6084145 34.6205752,18.9318782 C33.2437779,20.3413732 31.4145813,21.1188685 29.4713854,21.1197409 L29.4689236,21.1197409 C27.5273374,21.1197409 25.7022122,20.3455413 24.3293916,18.9402143 C24.0134317,18.6176231 23.5020444,18.6176231 23.1869367,18.9402143 L18.6154129,23.6194355 C17.7007672,24.5565786 16.1034513,24.5565786 15.1880482,23.6194355 L14.6168208,23.0346419 L24.3293916,13.091406 C25.235137,12.16415 26.0956234,12.16415 27.1855288,12.16415 C28.3522228,12.16415 29.8058086,12.16415 31.1849731,10.7522317 L33.4698828,8.41218492 C33.785748,8.0888182 33.785748,7.565189 33.4698828,7.24259774 C33.1547751,6.91913409 32.6432931,6.91913409 32.3274279,7.24259774 L30.0425182,9.5826445 C29.1360154,10.5099005 28.2755289,10.5099005 27.1855288,10.5099005 C26.0188349,10.5099005 24.5661011,10.5099005 23.1869367,11.9218189 L13.4750287,21.8641823 C13.1688212,22.1768865 13,22.5921452 13,23.0346419 Z" id="Shape"></path>
                    <path d="M7.5,9 C8.32721041,9 9,8.32729829 9,7.5 C9,6.67278959 8.32729829,6 7.5,6 C6.67278959,6 6,6.67270171 6,7.5 C6,8.32729829 6.67278959,9 7.5,9 Z" id="Shape"></path>
                    <path d="M15.2423492,11.4143689 L17.5854467,13.7572816 C17.7477896,13.9197087 17.9599422,14 18.171221,14 C18.3833737,14 18.5954293,13.9196117 18.7569954,13.7572816 C19.0810015,13.4341748 19.0810015,12.9097087 18.7569954,12.5858252 L16.4138979,10.2429126 C16.0907657,9.91902913 15.5662583,9.91902913 15.2423492,10.2429126 C14.9192169,10.5660194 14.9192169,11.0903883 15.2423492,11.4143689 Z" id="Shape"></path>
                    <path d="M41.5,5 C42.3265073,5 43,4.32729829 43,3.5 C43,2.67278959 42.3265073,2 41.5,2 C40.6734927,2 40,2.67270171 40,3.5 C40,4.32721041 40.6734927,5 41.5,5 Z" id="Shape"></path>
                    <path d="M43.5625258,17.2372007 C42.194292,18.5515257 41.7245321,20.6923389 41.2706578,22.7629196 C40.8681897,24.6005291 40.4514147,26.5020209 39.4376962,27.4757986 L38.2462762,28.6194233 C37.9179079,28.9357067 37.9179079,29.4476177 38.2462762,29.7630481 C38.4112496,29.9216163 38.6268399,30 38.8424302,30 C39.0571325,30 39.2727228,29.9215215 39.4376962,29.7630481 L40.6282283,28.6194233 C41.995574,27.3059514 42.4645446,25.1658964 42.9184189,23.0961688 C43.3216764,21.2569479 43.7393394,19.3554561 44.7530578,18.3809203 C45.0823141,18.0654899 45.0823141,17.5534842 44.7530578,17.2372955 C44.4239003,16.9209173 43.891782,16.9209173 43.5625258,17.2372007 Z" id="Shape"></path>
                    <path d="M47.7685302,17.5899179 L34.9059488,4.1305358 L37.5055902,1.41027575 C37.8143091,1.08723276 37.8143091,0.565155807 37.5055902,0.242209632 C37.1968712,-0.0807365439 36.6979436,-0.0807365439 36.3893171,0.242209632 L33.2315392,3.54650274 C32.9228203,3.86954572 32.9228203,4.39162268 33.2315392,4.71456885 L46.6522571,18.757984 C46.8062003,18.9190698 47.0083432,19 47.2103936,19 C47.412444,19 47.614587,18.9190698 47.7685302,18.757984 C48.0771566,18.434941 48.0771566,17.912864 47.7685302,17.5899179 Z" id="Shape"></path>
                    <path d="M30.3825939,23.7813144 C30.0632267,23.4681632 29.5470904,23.4681632 29.2278189,23.7813144 C28.9085475,24.0953124 28.9085475,24.6035244 29.2278189,24.9175224 L37.889588,33.4336721 C38.5265996,34.0599744 38.5265996,35.0789389 37.889588,35.7052412 C37.2542034,36.3299439 36.2170498,36.3306967 35.5791768,35.7052412 L26.9174077,27.1883388 C26.5980406,26.8743408 26.0811386,26.8743408 25.7626328,27.1883388 C25.4432656,27.5023369 25.4432656,28.0105488 25.7626328,28.3237 L36.7347174,39.1113247 C37.371729,39.737627 37.371729,40.7565915 36.7347174,41.382047 C36.0977058,42.0075025 35.0621791,42.0091962 34.4243062,41.3827998 L24.0304704,31.1628556 C23.7111032,30.8488576 23.1942012,30.8488576 22.8756954,31.1628556 C22.5563283,31.4760068 22.5563283,31.9843129 22.8756954,32.2982168 L32.114852,41.382047 C32.7518636,42.0083493 32.7518636,43.0273139 32.114852,43.6536162 C31.4974599,44.2606288 30.4226942,44.2606288 29.8053021,43.6528634 L28.6496658,42.5175023 L28.6488045,42.5175023 L21.1426717,35.1375606 C20.8233045,34.8236567 20.3064026,34.8236567 19.9878968,35.1375606 C19.6686253,35.4507118 19.6686253,35.9590179 19.9878968,36.2729218 L27.4947952,43.6536162 C27.8035391,43.9571696 27.9734152,44.3601823 27.9734152,44.7898242 C27.9734152,45.2186192 27.8035391,45.6217261 27.4947952,45.9251854 C26.8594106,46.5498881 25.8222569,46.5514877 25.1852453,45.9243385 L11.2943537,32.279774 C9.17669204,30.197714 8.71692585,27.5729088 8.31104151,25.2563618 C7.96966224,23.3076356 7.64704113,21.4672139 6.39426441,20.2354985 C6.07489726,19.9215005 5.55876091,19.9215005 5.23948947,20.2354985 C4.92021803,20.5494965 4.92012233,21.0569557 5.23948947,21.3708597 C6.12562084,22.2420936 6.39263743,23.765224 6.70138133,25.529334 C7.12602383,27.9542795 7.65527175,30.9724996 10.1395787,33.4151352 L24.0304704,47.0605465 C24.6666206,47.686002 25.5029855,48 26.3400203,48 C27.1762894,47.9991531 28.0134199,47.686002 28.6495701,47.0605465 C29.1134516,46.6037109 29.4213342,46.0343366 29.5454634,45.4145269 C30.7427313,45.9822075 32.3017636,45.7421688 33.2695312,44.7890714 C33.7341784,44.3322358 34.0412953,43.7621088 34.1654245,43.142205 C35.3798236,43.7155313 36.8841127,43.5059797 37.8894923,42.5175023 C39.1635155,41.2657445 39.1635155,39.2285682 37.8894923,37.9759635 L37.5799828,37.6708105 C38.1165043,37.5303253 38.6245057,37.253307 39.0451286,36.8406024 C40.3182905,35.5879977 40.3182905,33.5500687 39.0451286,32.2983109 L30.3825939,23.7813144 Z" id="Shape"></path>
                    <path d="M14.7684608,7.03457578 L10.0317477,2.23463015 C9.72312123,1.92178995 9.22410111,1.92178995 8.91547465,2.23463015 C8.60675568,2.54737661 8.60675568,3.05305838 8.91547465,3.36580484 L13.0940512,7.60016312 L0.231469846,20.634453 C-0.0771566153,20.9472932 -0.0771566153,21.4528812 0.231469846,21.7656277 C0.385413021,21.9216259 0.587555952,22 0.789606369,22 C0.991656786,22 1.19379972,21.9216259 1.34774289,21.7656277 L14.7684608,8.16584422 C15.0771797,7.85300401 15.0771797,7.34741599 14.7684608,7.03457578 Z" id="Shape"></path>
                    <path d="M19.7874566,47.1895113 C19.3260973,47.4320387 18.5383989,47.4610408 17.8285482,46.7509765 C17.1186975,46.0383819 17.1245215,45.2104602 17.3547644,44.849978 C17.5833571,44.4929021 17.5071595,44.0211804 17.1766465,43.7546143 C16.8477836,43.4880482 16.3715731,43.5129628 16.0717332,43.8143703 C15.4247819,44.4621482 14.3728672,44.4612723 13.7284397,43.8143703 C13.0832355,43.1665923 13.0832355,42.112688 13.7284397,41.4649101 C13.8908327,41.3029656 13.9711071,41.0903161 13.9711071,40.877764 C13.9711071,40.6652119 13.8907356,40.453341 13.7284397,40.2906179 C13.4054008,39.966729 12.8810451,39.966729 12.5572297,40.2906179 L11.9716247,40.877764 C11.3264206,41.5255419 10.2744088,41.5255419 9.62920469,40.877764 C8.98400058,40.2299861 8.98400058,39.1760818 9.62920469,38.5291797 L10.2148097,37.9420337 C10.5096991,37.6472441 10.5394987,37.1788314 10.2860568,36.8483245 C10.032615,36.5178176 9.57290585,36.4273077 9.21424341,36.635675 C8.76365857,36.8964017 7.97091267,36.8657452 7.28678471,36.1805954 C6.55955901,35.451456 6.56285929,34.643388 6.79727601,34.302857 C7.0573184,33.92583 6.96209571,33.408464 6.58605829,33.14764 C6.20914727,32.8860374 5.69401289,32.9815107 5.43387343,33.3594136 C4.76382017,34.3327349 4.7819717,36.0177751 6.11557472,37.3548876 C6.64070699,37.8806232 7.21223728,38.194488 7.77551687,38.3448511 C7.58662456,38.7667437 7.48722799,39.2276626 7.48722799,39.7035692 C7.48722799,40.5905656 7.83181571,41.4252025 8.4579947,42.0521535 C9.30781597,42.905087 10.5096991,43.1965676 11.6005377,42.9266926 C11.6651843,43.6790921 11.9840492,44.4140709 12.5572297,44.9887597 C13.3814253,45.8142484 14.5327365,46.1132228 15.5946491,45.8873375 C15.697346,46.5750176 16.0295091,47.2950088 16.6573382,47.925366 C17.4234878,48.6927532 18.3180569,49 19.1347784,49 C19.6591341,49 20.1510695,48.8728969 20.5561299,48.6603448 C20.9611904,48.4476953 21.1177594,47.9460957 20.9048915,47.5391907 C20.6928002,47.1338429 20.1908669,46.9760833 19.7874566,47.1895113 Z" id="Shape"></path>
                </g>
            </g>
        </g>
    </g>
</svg>