<?xml version="1.0" encoding="UTF-8" standalone="no"?>
<svg width="100px" height="100px" viewBox="0 0 100 100" version="1.1" xmlns="http://www.w3.org/2000/svg" xmlns:xlink="http://www.w3.org/1999/xlink">
    <!-- Generator: Sketch 44.1 (41455) - http://www.bohemiancoding.com/sketch -->
    <title>notify</title>
    <desc>Created with Sketch.</desc>
    <defs></defs>
    <g id="Symbols" stroke="none" stroke-width="1" fill="none" fill-rule="evenodd">
        <g id="notify" fill="#262626">
            <g id="icon" transform="translate(30.000000, 29.000000)">
                <g id="Fill-65">
                    <path d="M2.88434094,39.5352683 L16.6688701,28.9146251 L20.0503874,31.5193856 C20.3142319,31.7245551 20.6893578,31.7245551 20.9549972,31.5193856 L24.3347196,28.9146251 L38.1120693,39.5388364 L2.88434094,39.5352683 Z M4.94304601,13.4002437 L4.94304601,18.0299378 L4.06176947,17.3537705 L1.93485969,15.7141987 L4.94304601,13.4002437 Z M6.41483168,1.46116357 L34.5851683,1.46116357 L34.5851683,18.9148427 L20.5026923,29.7709847 L6.41483168,18.9148427 L6.41483168,1.46116357 Z M39.0651403,15.7141987 L36.056954,18.0299378 L36.056954,13.4002437 L39.0651403,15.7141987 Z M33.5100468,34.1384187 L25.5336865,27.9886863 L38.9287309,17.667769 L39.5282143,17.2056917 L39.5282143,38.7788173 L33.5100468,34.1384187 Z M1.46819595,17.2056917 L5.22663398,20.0976894 L15.4699033,27.9886863 L1.46819595,38.773465 L1.46819595,17.2056917 Z M41,15.7141987 C41,15.5090292 40.8887186,15.3359732 40.7487195,15.1968148 C40.7307709,15.1843262 40.7343606,15.1522127 40.7128223,15.13794 L36.056954,11.548366 L36.056954,0.729689744 C36.056954,0.326487098 35.7284945,0 35.3210612,0 L5.67893884,0 C5.27150549,0 4.94304601,0.326487098 4.94304601,0.729689744 L4.94304601,11.548366 L0.28358797,15.13794 C0.262049643,15.1522127 0.269229085,15.1843262 0.25128048,15.1968148 C0.107691634,15.3359732 0,15.5090292 0,15.7141987 L0,40.2667421 C0,40.3166964 0.0269229085,40.3523781 0.037692072,40.3969801 C0.0448715142,40.4344458 0.0269229085,40.4701275 0.037692072,40.5075932 C0.0484612354,40.5325704 0.0735892834,40.5432749 0.0861533074,40.5700361 C0.122050519,40.6467517 0.174101475,40.7038423 0.231537014,40.762717 C0.276408528,40.805535 0.306921157,40.8501371 0.364356696,40.8804665 C0.380510441,40.892955 0.391279604,40.914364 0.40922821,40.9232845 C0.50435582,40.9661024 0.604868012,40.9875114 0.703585343,40.9892955 C0.717944228,40.9928637 0.721533949,41 0.735892834,41 L40.2641072,41 C40.3735937,41 40.484875,40.9750228 40.5871821,40.9268526 C40.6123101,40.914364 40.6212844,40.892955 40.639233,40.8804665 C40.6894891,40.8537052 40.7200018,40.8126713 40.7594887,40.7716374 C40.8223088,40.7091946 40.8743598,40.6467517 40.9138467,40.568252 C40.9264107,40.5432749 40.9515388,40.5325704 40.9587182,40.5075932 C40.9694874,40.4719116 40.9515388,40.438014 40.9623079,40.4005483 C40.9694874,40.3541621 41,40.3166964 41,40.2685262 L41,15.7141987 L41,15.7141987 Z"></path>
                </g>
            </g>
        </g>
    </g>
</svg>