<?xml version="1.0" encoding="UTF-8" standalone="no"?>
<svg width="103px" height="100px" viewBox="0 0 103 100" version="1.1" xmlns="http://www.w3.org/2000/svg" xmlns:xlink="http://www.w3.org/1999/xlink">
    <!-- Generator: Sketch 44.1 (41455) - http://www.bohemiancoding.com/sketch -->
    <title>payment</title>
    <desc>Created with Sketch.</desc>
    <defs>
        <polygon id="path-1" points="20.1583797 0.0759894482 0.00524889459 0.0759894482 0.00524889459 29.9926057 40.3115105 29.9926057 40.3115105 0.0759894482 20.1583797 0.0759894482"></polygon>
        <polygon id="path-3" points="0.0383294645 30.2327569 42.7049969 30.2327569 42.7049969 0.0676966243 0.0383294645 0.0676966243 0.0383294645 30.2327569"></polygon>
    </defs>
    <g id="Symbols" stroke="none" stroke-width="1" fill="none" fill-rule="evenodd">
        <g id="payment">
            <g id="icon" transform="translate(28.000000, 31.000000)">
                <g>
                    <g id="Group-4">
                        <mask id="mask-2" fill="white">
                            <use xlink:href="#path-1"></use>
                        </mask>
                        <g id="Clip-2"></g>
                        <path d="M2.98600865,1.57185094 C2.16490658,1.57185094 1.49304807,2.24497546 1.49304807,3.06762478 L1.49304807,27.0009704 C1.49304807,27.8237074 2.16490658,28.4968319 2.98600865,28.4968319 L37.3255018,28.4968319 C38.1466039,28.4968319 38.8184624,27.8237074 38.8184624,27.0009704 L38.8184624,3.06762478 C38.8184624,2.24497546 38.1466039,1.57185094 37.3255018,1.57185094 L2.98600865,1.57185094 Z M37.3255018,29.9926057 L2.98600865,29.9926057 C1.34371702,29.9926057 0,28.6463567 0,27.0009704 L0,3.06762478 C0,1.4222385 1.34371702,0.0759894482 2.98600865,0.0759894482 L37.3255018,0.0759894482 C38.9677935,0.0759894482 40.3115105,1.4222385 40.3115105,3.06762478 L40.3115105,27.0009704 C40.3115105,28.6463567 38.9677935,29.9926057 37.3255018,29.9926057 L37.3255018,29.9926057 Z" id="Fill-1" fill="#262626" mask="url(#mask-2)"></path>
                        <path d="M1.49304807,9.79887002 L38.8184624,9.79887002 L38.8184624,5.31137319 L1.49304807,5.31137319 L1.49304807,9.79887002 Z M39.5650302,11.2947315 L0.746480293,11.2947315 C0.298574621,11.2947315 0,10.9955943 0,10.5468446 L0,4.56348627 C0,4.11473659 0.298574621,3.81559935 0.746480293,3.81559935 L39.5650302,3.81559935 C40.0129359,3.81559935 40.3115105,4.11473659 40.3115105,4.56348627 L40.3115105,10.5468446 C40.3115105,10.9955943 40.0129359,11.2947315 39.5650302,11.2947315 L39.5650302,11.2947315 Z" id="Fill-3" fill="#262626" mask="url(#mask-2)"></path>
                    </g>
                    <path d="M24.634812,24.0093351 L35.0859735,24.0093351 L35.0859735,18.7738637 L24.634812,18.7738637 L24.634812,24.0093351 Z M35.8324538,25.5051089 L23.8883317,25.5051089 C23.440426,25.5051089 23.1417639,25.2059717 23.1417639,24.757222 L23.1417639,18.0259767 C23.1417639,17.5772271 23.440426,17.2780898 23.8883317,17.2780898 L35.8324538,17.2780898 C36.2803594,17.2780898 36.5789341,17.5772271 36.5789341,18.0259767 L36.5789341,24.757222 C36.5789341,25.2059717 36.2803594,25.5051089 35.8324538,25.5051089 L35.8324538,25.5051089 Z" id="Fill-5" fill="#262626"></path>
                    <path d="M9.70459373,15.7822283 L3.73257643,15.7822283 C3.28467076,15.7822283 2.98600865,15.4830911 2.98600865,15.0343414 C2.98600865,14.5855917 3.28467076,14.2863668 3.73257643,14.2863668 L9.70459373,14.2863668 C10.1524994,14.2863668 10.4511615,14.5855917 10.4511615,15.0343414 C10.4511615,15.4830911 10.1524994,15.7822283 9.70459373,15.7822283" id="Fill-6" fill="#262626"></path>
                    <path d="M18.6627072,15.7822283 L12.6906899,15.7822283 C12.2427842,15.7822283 11.9441221,15.4830911 11.9441221,15.0343414 C11.9441221,14.5855917 12.2427842,14.2863668 12.6906899,14.2863668 L18.6627072,14.2863668 C19.1106128,14.2863668 19.4092749,14.5855917 19.4092749,15.0343414 C19.4092749,15.4830911 19.1106128,15.7822283 18.6627072,15.7822283" id="Fill-7" fill="#262626"></path>
                    <path d="M13.4371702,18.7738637 L3.73257643,18.7738637 C3.28467076,18.7738637 2.98600865,18.4747264 2.98600865,18.0259767 C2.98600865,17.5772271 3.28467076,17.2780898 3.73257643,17.2780898 L13.4371702,17.2780898 C13.8850758,17.2780898 14.1836505,17.5772271 14.1836505,18.0259767 C14.1836505,18.4747264 13.8850758,18.7738637 13.4371702,18.7738637" id="Fill-8" fill="#262626"></path>
                    <g id="Group-12" transform="translate(2.099558, 6.485835)">
                        <mask id="mask-4" fill="white">
                            <use xlink:href="#path-3"></use>
                        </mask>
                        <g id="Clip-10"></g>
                        <path d="M16.5631493,12.2880284 L14.323621,12.2880284 C13.8757153,12.2880284 13.5771407,11.9888912 13.5771407,11.5401415 C13.5771407,11.0913918 13.8757153,10.7922546 14.323621,10.7922546 L16.5631493,10.7922546 C17.011055,10.7922546 17.3097171,11.0913918 17.3097171,11.5401415 C17.3097171,11.9888912 17.011055,12.2880284 16.5631493,12.2880284" id="Fill-9" fill="#262626" mask="url(#mask-4)"></path>
                        <path d="M1.55830932,23.5067705 C1.63301859,24.179895 2.15554605,24.7782571 2.90202634,24.8530195 L37.3161413,28.7422419 C38.1373309,28.8170043 38.8838112,28.2186421 38.9584329,27.3959928 L41.1979613,3.38788481 C41.2726706,3.01389752 41.1233395,2.56514784 40.8993867,2.2660106 C40.6754338,1.96678572 40.30215,1.74241088 39.9289535,1.74241088 L38.2119526,1.59288608 L38.2119526,20.5151351 C38.2119526,22.1605214 36.8682356,23.5067705 35.225944,23.5067705 L1.55830932,23.5067705 Z M37.4654724,30.2380157 L37.1668103,30.2380157 L2.6780735,26.348881 C1.03578187,26.1992686 -0.158604098,24.7034947 0.0653487377,23.0580208 L0.139970523,22.6841211 C0.139970523,22.3101339 0.438545143,22.0109966 0.811829031,22.0109966 L0.961160082,22.0109966 L35.225944,22.0109966 C36.0470461,22.0109966 36.7189046,21.3378721 36.7189046,20.5151351 L36.7189046,0.770149113 C36.7189046,0.545774272 36.7936138,0.321399431 36.9428574,0.246637032 C37.0921885,0.0970245895 37.3161413,0.0222621913 37.5400941,0.0970245895 L40.0035753,0.396161829 C40.8247649,0.471011874 41.4966234,0.844911511 42.0191509,1.51803603 C42.5416783,2.11639816 42.7656312,2.93913513 42.6910094,3.68702205 L40.451481,27.6951301 C40.30215,29.1161415 38.9584329,30.2380157 37.4654724,30.2380157 L37.4654724,30.2380157 Z" id="Fill-11" fill="#262626" mask="url(#mask-4)"></path>
                    </g>
                </g>
            </g>
        </g>
    </g>
</svg>