<?xml version="1.0" encoding="UTF-8" standalone="no"?>
<svg width="100px" height="100px" viewBox="0 0 100 100" version="1.1" xmlns="http://www.w3.org/2000/svg" xmlns:xlink="http://www.w3.org/1999/xlink">
    <!-- Generator: Sketch 44.1 (41455) - http://www.bohemiancoding.com/sketch -->
    <title>personal</title>
    <desc>Created with Sketch.</desc>
    <defs></defs>
    <g id="Symbols" stroke="none" stroke-width="1" fill="none" fill-rule="evenodd">
        <g id="personal" fill="#262626">
            <g id="icon" transform="translate(30.000000, 29.000000)">
                <g id="user">
                    <path d="M19.959596,23.1 C13.5872323,23.1 8.4040404,17.9193 8.4040404,11.55 C8.4040404,5.1807 13.5872323,0 19.959596,0 C26.3319596,0 31.5151515,5.1807 31.5151515,11.55 C31.5151515,17.9193 26.3319596,23.1 19.959596,23.1 Z M19.959596,2.1 C14.7469899,2.1 10.5050505,6.3399 10.5050505,11.55 C10.5050505,16.7601 14.7469899,21 19.959596,21 C25.172202,21 29.4141414,16.7601 29.4141414,11.55 C29.4141414,6.3399 25.172202,2.1 19.959596,2.1 Z" id="Shape"></path>
                    <path d="M36.7676768,42 L3.15151515,42 C1.4139798,42 0,40.5867 0,38.85 C0,38.7072 0.0294141414,35.3115 2.57373737,31.92 C4.05494949,29.946 6.08242424,28.3773 8.60153535,27.2601 C11.6774141,25.893 15.4991515,25.2 19.959596,25.2 C24.4200404,25.2 28.2417778,25.893 31.3176566,27.2601 C33.8367677,28.3794 35.8642424,29.946 37.3454545,31.92 C39.8897778,35.3115 39.9191919,38.7072 39.9191919,38.85 C39.9191919,40.5867 38.5052121,42 36.7676768,42 Z M19.959596,27.3 C12.6333737,27.3 7.22747475,29.3013 4.3259798,33.0876 C2.15143434,35.9247 2.10311111,38.8248 2.1010101,38.8542 C2.1010101,39.4296 2.57163636,39.9 3.15151515,39.9 L36.7676768,39.9 C37.3475556,39.9 37.8181818,39.4296 37.8181818,38.85 C37.8181818,38.8248 37.7698586,35.9247 35.5932121,33.0876 C32.6896162,29.3013 27.2837172,27.3 19.959596,27.3 Z" id="Shape"></path>
                </g>
            </g>
        </g>
    </g>
</svg>