<?xml version="1.0" encoding="UTF-8" standalone="no"?>
<svg width="100px" height="100px" viewBox="0 0 100 100" version="1.1" xmlns="http://www.w3.org/2000/svg" xmlns:xlink="http://www.w3.org/1999/xlink">
    <!-- Generator: Sketch 44.1 (41455) - http://www.bohemiancoding.com/sketch -->
    <title>service</title>
    <desc>Created with Sketch.</desc>
    <defs></defs>
    <g id="Symbols" stroke="none" stroke-width="1" fill="none" fill-rule="evenodd">
        <g id="service" fill="#262626">
            <g id="icon" transform="translate(31.000000, 20.000000)">
                <g id="Group-6">
                    <path d="M39.9306145,59.0761986 L32.6505165,33.6481018 C36.5386162,30.1690006 39.0000153,25.1280994 39.0000153,19.5 C39.0000153,9.0066004 30.4934197,0.5 20.0000191,0.5 C9.5066185,0.5 1.0000191,9.0066004 1.0000191,19.5 C1.0000191,25.1109009 3.4467192,30.1378994 7.3142195,33.6160011 L0.0693198,58.9208984 C-0.0458802,59.3213005 0.099619,59.75 0.4336196,59.9981002 C0.7656194,60.2471007 1.2207194,60.262699 1.5693198,60.0381011 L8.2470198,55.7607993 L11.8926192,62.8056983 C12.0654193,63.1397017 12.4092189,63.3457984 12.7803202,63.3457984 C12.8154192,63.3457984 12.8515196,63.3437995 12.8877192,63.3399009 C13.2988196,63.2958984 13.6396189,63.0029983 13.7461195,62.6044997 L19.9792185,39.3395003 L26.2539187,62.7588004 C26.3603182,63.1572989 26.7011195,63.450199 27.112321,63.4942016 C27.1484184,63.4981003 27.1845169,63.5 27.2197189,63.5 C27.5908165,63.5 27.9345169,63.2939987 28.107418,62.9599991 L31.7529182,55.9169998 L38.4306144,60.1934013 C38.7803191,60.4179992 39.2334174,60.4024009 39.5674171,60.1534004 C39.9004173,59.9053001 40.0459175,59.4766006 39.9306145,59.0761986 Z M3.0000181,19.5 C3.0000181,10.1261997 10.6261177,2.5 20.0000181,2.5 C29.3738165,2.5 37.0000143,10.1261997 37.0000143,19.5 C37.0000143,28.8738995 29.3738165,36.5 20.0000181,36.5 C10.6261177,36.5 3.0000181,28.8738995 3.0000181,19.5 Z M12.4824181,59.5937996 L9.5185185,53.867199 C9.389618,53.6181985 9.1611176,53.4336014 8.889618,53.3614007 C8.6191178,53.2891007 8.3281194,53.3330995 8.0918179,53.4854012 L2.7207184,56.9258004 L9.0043183,34.9765015 C11.6391183,36.8520012 14.7638188,38.0803986 18.1587182,38.4071007 L12.4824181,59.5937996 Z M31.9082184,53.6416016 C31.671917,53.4892998 31.3808174,53.4463005 31.1103172,53.5176011 C30.8388176,53.5899011 30.6103172,53.7745019 30.4814186,54.0234986 L27.5176201,59.7490998 L21.8002167,38.4091988 C25.1946183,38.0898018 28.3216172,36.8717995 30.9591179,35.0038987 L37.2793198,57.0811005 L31.9082184,53.6416016 Z" id="Shape"></path>
                    <path d="M20.0000191,31.5 C26.6274185,31.5 32.0000191,26.1273994 32.0000191,19.5 C32.0000191,12.8726006 26.6274185,7.5 20.0000191,7.5 C13.3725186,7.5 8.0000191,12.8725996 8.0000191,19.5 C8.0000191,26.1274004 13.3725185,31.5 20.0000191,31.5 Z M20.0000191,9.5 C25.514019,9.5 30.0000191,13.9860001 30.0000191,19.5 C30.0000191,25.0140991 25.514019,29.5 20.0000191,29.5 C14.4859181,29.5 10.0000191,25.0140991 10.0000191,19.5 C10.0000191,13.9860001 14.485918,9.5 20.0000191,9.5 Z" id="Shape"></path>
                </g>
            </g>
        </g>
    </g>
</svg>