<?xml version="1.0" encoding="UTF-8" standalone="no"?>
<svg width="100px" height="100px" viewBox="0 0 100 100" version="1.1" xmlns="http://www.w3.org/2000/svg" xmlns:xlink="http://www.w3.org/1999/xlink">
    <!-- Generator: Sketch 44.1 (41455) - http://www.bohemiancoding.com/sketch -->
    <title>special</title>
    <desc>Created with Sketch.</desc>
    <defs></defs>
    <g id="Symbols" stroke="none" stroke-width="1" fill="none" fill-rule="evenodd">
        <g id="special" stroke="#262626" stroke-width="0.5" fill="#262626">
            <g id="icon" transform="translate(28.000000, 28.000000)">
                <path d="M9.90727941,33.0166176 L10.7671324,33.8764706 L33.8752941,10.7683824 L33.0154412,9.90852941 L9.90727941,33.0166176 Z M14.9327206,18.1958088 C17.0732353,18.1958088 18.8148529,16.4541912 18.8148529,14.3124265 C18.8148529,12.1707353 17.0732353,10.4290441 14.9327206,10.4290441 C12.7922059,10.4290441 11.0505147,12.1707353 11.0505147,14.3124265 C11.0493382,16.4541912 12.7922059,18.1958088 14.9327206,18.1958088 Z M14.9327206,11.6452206 C16.4030882,11.6452206 17.5986765,12.8419853 17.5986765,14.3123529 C17.5986765,15.7827206 16.4030882,16.9794853 14.9327206,16.9794853 C13.4622794,16.9794853 12.2667647,15.7827206 12.2667647,14.3123529 C12.2667647,12.8419853 13.4622794,11.6452206 14.9327206,11.6452206 Z M28.8511029,26.8041912 C26.7105882,26.8041912 24.9688971,28.5458088 24.9688971,30.6875 C24.9688971,32.8291912 26.7105882,34.5708824 28.8511029,34.5708824 C30.9916176,34.5708824 32.7332353,32.8291912 32.7332353,30.6875 C32.7344118,28.5458088 30.9916176,26.8041912 28.8511029,26.8041912 Z M28.8511029,33.3547059 C27.3806618,33.3547059 26.1851471,32.1580147 26.1851471,30.6875735 C26.1851471,29.2172059 27.3806618,28.0204412 28.8511029,28.0204412 C30.3214706,28.0204412 31.5170588,29.2172059 31.5170588,30.6875735 C31.5182353,32.1580147 30.3214706,33.3547059 28.8511029,33.3547059 Z M22.5,0 C10.0933824,0 0,10.0933824 0,22.5 C0,34.9066176 10.0933824,45 22.5,45 C34.9066176,45 45,34.9066176 45,22.5 C45,10.0933824 34.9066176,0 22.5,0 Z M22.5,43.78375 C10.7647059,43.78375 1.21625,34.2352941 1.21625,22.5 C1.21625,10.7647059 10.7647059,1.21625 22.5,1.21625 C34.2352941,1.21625 43.78375,10.7647059 43.78375,22.5 C43.78375,34.2352941 34.2352941,43.78375 22.5,43.78375 Z" id="Shape"></path>
            </g>
        </g>
    </g>
</svg>