<?xml version="1.0" encoding="UTF-8" standalone="no"?>
<svg width="100px" height="100px" viewBox="0 0 100 100" version="1.1" xmlns="http://www.w3.org/2000/svg" xmlns:xlink="http://www.w3.org/1999/xlink">
    <!-- Generator: Sketch 44.1 (41455) - http://www.bohemiancoding.com/sketch -->
    <title>wait</title>
    <desc>Created with Sketch.</desc>
    <defs></defs>
    <g id="Symbols" stroke="none" stroke-width="1" fill="none" fill-rule="evenodd">
        <g id="wait" stroke="#FFFFFF" fill="#262626">
            <g id="icon" transform="translate(33.000000, 28.000000)">
                <g id="Fill-1">
                    <path d="M1.10323089,35.4664873 C0.456984865,35.657712 0,36.2651599 0,36.9510955 L0,42.5066033 C0,43.381861 0.685239532,44.0677966 1.56021576,44.0677966 L33.4393087,44.0677966 C34.3142849,44.0677966 35,43.381861 35,42.5066033 L35,36.9510955 C35,36.2651599 34.5430151,35.657712 33.8962936,35.4664873 C33.3632238,29.492378 29.6350643,24.4696357 24.4617673,22.0336605 C29.6350643,19.5976852 33.3632238,14.5754186 33.8962936,8.5994066 C34.5430151,8.41008456 35,7.8002583 35,7.11670108 L35,1.56071762 C35,0.685459947 34.3142849,0 33.4393087,0 L1.56021576,0 C0.685239532,0 0,0.685459947 0,1.56071762 L0,7.11670108 C0,7.8002583 0.456984865,8.41008456 1.10323089,8.5994066 C1.63630064,14.5754186 5.3644602,19.5976852 10.5377571,22.0336605 C5.3254667,24.4696357 1.63630064,29.492378 1.10323089,35.4664873 Z M31.879093,40.9458857 L3.11900492,40.9458857 L3.11900492,38.5118131 L31.8420016,38.5118131 L31.8420016,40.9458857 L31.879093,40.9458857 Z M3.15799842,5.55598347 L31.879093,5.55598347 L31.879093,3.12000818 L3.15799842,3.12000818 L3.15799842,5.55598347 Z M4.26122931,8.67551597 L30.7758621,8.67551597 C30.0159642,15.2979819 24.3466889,20.4729428 17.5,20.4729428 C10.6509334,20.4729428 5.06012065,15.2979819 4.26122931,8.67551597 Z M17.5370914,23.5948538 C24.3856825,23.5948538 30.0159642,28.7693391 30.8148556,35.3899022 L4.26122931,35.3899022 C5.06012065,28.7693391 10.6899269,23.5948538 17.5370914,23.5948538 Z"></path>
                </g>
            </g>
        </g>
    </g>
</svg>