<?xml version="1.0" encoding="UTF-8" standalone="no"?>
<svg width="100px" height="100px" viewBox="0 0 100 100" version="1.1" xmlns="http://www.w3.org/2000/svg" xmlns:xlink="http://www.w3.org/1999/xlink">
    <!-- Generator: Sketch 44.1 (41455) - http://www.bohemiancoding.com/sketch -->
    <title>years</title>
    <desc>Created with Sketch.</desc>
    <defs></defs>
    <g id="Symbols" stroke="none" stroke-width="1" fill="none" fill-rule="evenodd">
        <g id="years" fill="#262626">
            <g id="icon" transform="translate(25.000000, 31.000000)">
                <g id="Group">
                    <rect id="Rectangle-path" x="14.8081535" y="24.5416667" width="10.911271" height="1.58333333"></rect>
                    <rect id="Rectangle-path" x="14.8081535" y="19.7916667" width="20.263789" height="1.58333333"></rect>
                    <rect id="Rectangle-path" x="14.8081535" y="15.0416667" width="20.263789" height="1.58333333"></rect>
                    <rect id="Rectangle-path" x="14.8081535" y="10.2916667" width="20.263789" height="1.58333333"></rect>
                    <path d="M49.1007194,0 L43.6450839,0 L6.23501199,0 L0.779376499,0 C0.348537092,0 0,0.354508096 0,0.791666667 L0,6.33333333 C0,6.77057044 0.34853717,7.125 0.779376499,7.125 L6.23501199,7.125 L6.23501199,38 L13.2494005,34.8333333 L19.4844125,38 L24.940048,34.8333333 L30.3956835,38 L36.6306954,34.8333333 L43.6450839,38 L43.6450839,7.125 L49.1007194,7.125 C49.5314808,7.125 49.8800959,6.77057044 49.8800959,6.33333333 L49.8800959,0.791666667 C49.8800959,0.354508096 49.5314808,0 49.1007194,0 Z M6.23501277,5.54166667 L1.55875378,5.54166667 L1.55875378,1.58333333 L6.23501277,1.58333333 L6.23501277,5.54166667 Z M42.0863309,35.5636463 L37.2637039,33.3864844 L36.5914923,33.083038 L35.9336199,33.417122 L30.4447066,36.2048943 L25.7133445,33.4586042 L24.940048,33.0097283 L24.1666727,33.4586043 L19.4353893,36.2048944 L13.9464746,33.4171221 L13.2885249,33.0830381 L12.6163133,33.3864845 L7.79376585,35.5636464 L7.79376585,1.58333333 L42.0863318,1.58333333 L42.0863318,35.5636463 L42.0863309,35.5636463 Z M48.3213429,5.54166667 L43.6450839,5.54166667 L43.6450839,1.58333333 L48.3213429,1.58333333 L48.3213429,5.54166667 Z" id="Shape"></path>
                </g>
            </g>
        </g>
    </g>
</svg>