<svg width="100" height="100" viewBox="0 0 100 100" xmlns="http://www.w3.org/2000/svg"><title>call</title><path d="M65.689 68.077l-2.86-5.332c-.922-1.716-3.08-2.368-4.812-1.458l-1.429.754a3.28 3.28 0 0 1-2.49.237 3.24 3.24 0 0 1-1.93-1.577l-6.98-13.007a3.274 3.274 0 0 1-.247-2.53 3.346 3.346 0 0 1 1.632-1.96l1.328-.701a3.54 3.54 0 0 0 1.484-4.808l-2.847-5.305a2.653 2.653 0 0 0-3.573-1.083l-2.658 1.402a8.483 8.483 0 0 0-3.692 3.847l-.817 1.726a8.389 8.389 0 0 0 .19 7.522L48.56 69.228a8.566 8.566 0 0 0 6.214 4.382l1.883.29a8.596 8.596 0 0 0 5.284-.883l2.656-1.4a2.601 2.601 0 0 0 1.288-1.547 2.575 2.575 0 0 0-.195-1.993zm-1.746.946a1.292 1.292 0 0 1-.637.768l-2.623 1.388a7.147 7.147 0 0 1-4.405.738l-1.858-.288a7.15 7.15 0 0 1-5.188-3.67L36.825 44.764a7.04 7.04 0 0 1-.16-6.295l.807-1.71a7.082 7.082 0 0 1 3.078-3.218l2.623-1.387a1.316 1.316 0 0 1 .998-.096c.335.101.61.326.774.634l2.81 5.253a2.2 2.2 0 0 1 .164 1.7 2.217 2.217 0 0 1-1.093 1.317l-1.31.694a4.614 4.614 0 0 0-2.243 2.704 4.531 4.531 0 0 0 .34 3.487l6.888 12.88a4.485 4.485 0 0 0 2.672 2.19c1.156.35 2.38.234 3.447-.33l1.41-.746a2.215 2.215 0 0 1 1.686-.161c.566.172 1.03.552 1.307 1.071l2.824 5.28c.162.302.197.663.096.992z" stroke="#262626" stroke-width=".5" fill="#262626" fill-rule="evenodd"/></svg>