<svg width="100" height="100" viewBox="0 0 100 100" xmlns="http://www.w3.org/2000/svg"><title>cart</title><g fill="#262626" fill-rule="evenodd"><path d="M69.625 45.322a1.866 1.866 0 0 0-1.507-.775H39.425a.777.777 0 0 0-.774.78c0 .431.346.78.774.78h28.693c.1 0 .194.049.256.134.062.086.08.198.048.302l-4.304 14.04c-.172.56-.672.937-1.243.937h-24.88a1.376 1.376 0 0 1-1.334-1.077l-5.679-24.12A1.696 1.696 0 0 0 29.33 35h-6.556a.777.777 0 0 0-.774.78c0 .43.346.78.774.78h6.556c.068 0 .13.051.146.123l5.68 24.12c.315 1.34 1.483 2.277 2.839 2.277h24.88c1.254 0 2.348-.818 2.721-2.036l4.305-14.04a1.92 1.92 0 0 0-.276-1.682z"/><path d="M44.12 55.28a.777.777 0 0 0-.775.78c0 .431.346.78.774.78h16.13a.777.777 0 0 0 .775-.78.777.777 0 0 0-.774-.78H44.12zm18.516-3.9c0-.43-.346-.78-.773-.78H42.506a.777.777 0 0 0-.774.78c0 .43.346.78.774.78h19.357c.427 0 .773-.35.773-.78zM44.445 66.2c-2.134 0-3.87 1.75-3.87 3.9s1.736 3.9 3.87 3.9c2.133 0 3.87-1.75 3.87-3.9s-1.737-3.9-3.87-3.9zm0 6.24a2.334 2.334 0 0 1-2.322-2.34c0-1.29 1.042-2.34 2.322-2.34s2.322 1.05 2.322 2.34c0 1.29-1.042 2.34-2.322 2.34zm12.383-6.24c-2.134 0-3.87 1.75-3.87 3.9s1.736 3.9 3.87 3.9c2.134 0 3.87-1.75 3.87-3.9s-1.736-3.9-3.87-3.9zm0 6.24a2.334 2.334 0 0 1-2.322-2.34c0-1.29 1.042-2.34 2.322-2.34s2.322 1.05 2.322 2.34c0 1.29-1.042 2.34-2.322 2.34z"/></g></svg>