<svg width="100" height="100" viewBox="0 0 100 100" xmlns="http://www.w3.org/2000/svg"><title>comfortable</title><g transform="translate(31 21)" stroke-width="2" stroke="#262626" fill="none" fill-rule="evenodd"><path d="M22.72 57.933zm10.01-29.292c-.093-1.057-1.135-1.931-2.322-1.947l-7.855-.108c-.456-.006-.919-.365-.99-.768l-1.73-9.836c-.063-.356-.435-1.81-2.464-1.81l-9.768.381c-1.287.05-2.333.61-2.333 2.18 0 0-.041 21.86-.091 22.653l-.342 5.409c-.046.722-.36 1.892-.687 2.553l-3.954 8c-.261.528-.257 1.111.012 1.6.268.49.781.851 1.408.99l1.316.292c.196.044.401.066.61.066 1.062 0 2.079-.552 2.529-1.372l3.758-6.848c.416-.757.932-2.039 1.152-2.858l2.121-7.897 5.132 7.016c.423.578.87 1.688.958 2.375l.992 7.855c.141 1.118 1.28 2.028 2.54 2.028l1.5-.005c.644-.002 1.23-.231 1.65-.647.418-.415.614-.96.55-1.532l-1.035-9.339c-.096-.86-.442-2.169-.788-2.977L20 33.358l-.028-2.264 10.688-.354a2.253 2.253 0 0 0 1.535-.643 1.79 1.79 0 0 0 .537-1.438l-.002-.018z" fill="#FFF"/><ellipse cx="10.535" cy="6.587" rx="7.118" ry="6.587"/><path d="M40.99 22.129l-.698-8.973c-.083-1.065-1.122-1.932-2.321-1.932l-13.418.02c-.6.002-1.153.215-1.555.6-.402.386-.6.894-.558 1.43l.698 8.972c.083 1.066 1.123 1.933 2.318 1.933l13.421-.021c.6-.001 1.153-.214 1.555-.6.402-.386.6-.894.558-1.43z" fill="#FFF"/></g></svg>