<svg width="100" height="100" viewBox="0 0 100 100" xmlns="http://www.w3.org/2000/svg"><title>confid</title><path d="M64.439 37.362C63.823 28.902 57.575 24 49.971 24s-13.852 4.902-14.468 13.362c-3.091.686-5.415 3.478-5.415 6.817v24.836c0 3.851 3.088 6.985 6.883 6.985h26c3.794 0 6.882-3.134 6.882-6.985V44.18c0-3.339-2.323-6.131-5.414-6.817zm-14.468-11.81c6.679 0 12.192 4.72 12.914 11.642H37.056c.722-6.922 6.236-11.642 12.915-11.642zm18.353 43.463c0 2.995-2.401 5.433-5.353 5.433h-26c-2.952 0-5.353-2.438-5.353-5.433V44.18c0-2.995 2.401-5.432 5.353-5.432h26c2.952 0 5.353 2.437 5.353 5.432v24.836zM49.97 44.18c-3.795 0-6.883 3.134-6.883 6.985a6.975 6.975 0 0 0 3.21 5.874c-.1.87-.15 1.764-.15 2.663 0 4.628 1.313 9.314 3.823 9.314s3.823-4.686 3.823-9.314c0-.9-.05-1.794-.15-2.663a6.976 6.976 0 0 0 3.21-5.874c0-3.851-3.089-6.985-6.883-6.985zm2.493 11.761l-.474.256.075.538c.133.96.2 1.96.2 2.969 0 4.666-1.381 7.761-2.294 7.761s-2.294-3.095-2.294-7.761c0-1.008.067-2.007.2-2.969l.075-.538-.474-.256a5.427 5.427 0 0 1-2.86-4.776c0-2.995 2.401-5.433 5.353-5.433s5.353 2.438 5.353 5.433a5.426 5.426 0 0 1-2.86 4.776z" fill="#262626" fill-rule="evenodd"/></svg>