<svg width="100" height="100" viewBox="0 0 100 100" xmlns="http://www.w3.org/2000/svg"><title>economy</title><path d="M47.898 31.6c5.515.998 10.742-2.352 9.184-5.887l-.002-.003c-8.053 2.004-15.226-.262-14.397-.063-1.216 3.08 1.938 5.359 5.215 5.952zm1.985 15.126c-1.242.069-2.794.325-3.537 1.314-.694.923-.859 3.205-.196 4.181.354.522.933.825 1.538 1.016.708.224 1.454.307 2.195.344v-6.855zm1.657 8.535v7.797c5.643-.42 4.946-6.468 1.796-7.492-.579-.188-1.188-.27-1.796-.305zm-1.657-10.175c0-1.431-.207-2.424.829-2.478.507.026.804.358.828.82v1.663c3.633.23 4.92 2.111 4.833 3.687-.09 1.058-1.694 1.024-1.654-.115.046-1.303-1.812-1.831-3.179-1.93v6.888c3.414.178 5.605 1.75 5.788 5.088.202 3.673-2.006 5.762-5.788 5.991 0 1.457.132 1.91-.274 2.272a.828.828 0 0 1-1.383-.61v-1.654c-2.016-.08-4.63-.538-5.512-2.355-1.125-2.314 1.272-2.785 1.374-1.17.13 1.487 2.646 1.816 4.138 1.885v-7.846c-3.692-.18-5.937-1.452-5.79-5.1.134-3.386 2.062-4.791 5.548-5.023.08-.005.161-.01.242-.013zm-.483-11.08c-6.94 3.773-15.147 10.288-17.233 17.94-1.275 4.682-.168 10.488 3.444 14.975 17.13 21.28 54.866-11.223 14.565-32.909l-.776-.007zm-4.543-1.651c-5.726-2.66-4.501-8.294-2.233-8.355.83-.006 6.356 1.942 13.657.218.828-.196 1.543-.296 2.125.494 1.108 1.503 1.159 5.48-3.496 7.642.881.197.858 1.513-.133 1.614-1.834.062-1.744-.346 1.106 1.596C90.691 59.29 51.64 90.002 34.167 67.755c-3.782-4.815-5.01-11.058-3.6-16.235 1.794-6.583 7.545-12.082 13.167-15.956 2.82-1.943 2.946-1.594 1.312-1.594-.876-.03-1.117-1.106-.43-1.52a.82.82 0 0 1 .241-.095z" fill="#262626" fill-rule="evenodd"/></svg>