<svg width="100" height="100" viewBox="0 0 100 100" xmlns="http://www.w3.org/2000/svg"><title>economicaly</title><g fill="none" fill-rule="evenodd"><path d="M70.144 48.663h-1.945v-9.316c0-2.234-1.746-4.05-3.892-4.05h-2.635l-2.697-5.047a2.322 2.322 0 0 0-2.04-1.25c-.396 0-.788.106-1.135.306l-10.349 5.99h-11.56c-2.146 0-3.891 1.817-3.891 4.051v27.812c0 2.233 1.745 4.05 3.891 4.05h30.416c2.146 0 3.892-1.817 3.892-4.05v-8.168h1.945V48.663zm-5.837-11.746c1.199 0 2.178.947 2.31 2.16h-2.925l-1.154-2.16h1.77zm-7.75-6.195c.365-.213.857-.064 1.058.315l4.296 8.04H42.124l14.434-8.355zM66.643 67.16c0 1.34-1.047 2.43-2.335 2.43H33.891c-1.287 0-2.335-1.09-2.335-2.43V39.347c0-1.34 1.048-2.43 2.335-2.43h8.762l-3.733 2.16h-4.542c-.43 0-.779.363-.779.81 0 .448.348.81.779.81h32.264v7.967H60.95c-2.643 0-4.794 2.239-4.794 4.99v.348c0 2.751 2.15 4.99 4.794 4.99h5.69v8.167zm1.946-9.788H60.95c-1.786 0-3.238-1.511-3.238-3.37v-.348c0-1.858 1.452-3.37 3.238-3.37h7.637v7.088zm-5.254-3.478c0 .989-.768 1.789-1.718 1.789s-1.718-.8-1.718-1.789c0-.988.77-1.788 1.718-1.788.95 0 1.718.801 1.718 1.788z" fill="#262626"/><text font-family="LastResort, .LastResort" font-size="24" fill="#E51C23" transform="translate(30 29)"><tspan x="29" y="48.333"></tspan></text></g></svg>