<svg width="100" height="100" viewBox="0 0 100 100" xmlns="http://www.w3.org/2000/svg"><title>edit</title><path d="M27 32v27.97h45.872V32H27zm44.753 26.852H28.12V33.119h43.634v25.733zM50.495 61.09h-1.118v5.594h-6.713v1.119h14.544v-1.12h-6.713V61.09zM47.14 36.475H31.475v7.832H47.14v-7.832zm-1.119 6.713H32.594v-5.594H46.02v5.594zm1.119 4.476H31.475v7.831H47.14v-7.831zm-1.119 6.713H32.594v-5.595H46.02v5.595zm18.416-18.8l-1.028-.442-3.031 7.072-2.773-2.771-.79.79 3.94 3.942 3.682-8.591zm0 11.188l-1.028-.442-3.031 7.072-2.773-2.771-.79.791 3.94 3.94 3.682-8.59z" stroke="#262626" stroke-width=".5" fill="#262626" fill-rule="evenodd"/></svg>