<svg width="100" height="100" viewBox="0 0 100 100" xmlns="http://www.w3.org/2000/svg"><title>eff</title><g fill="#262626" fill-rule="evenodd"><path d="M44.444 73.752c-.096 0-.194-.012-.293-.037a23.339 23.339 0 0 1-6.013-2.484 1.174 1.174 0 0 1-.436-1.573 4.695 4.695 0 0 0-6.365-6.365 1.174 1.174 0 0 1-1.573-.436 23.373 23.373 0 0 1-2.483-6.013 1.172 1.172 0 0 1 .762-1.402 4.688 4.688 0 0 0 0-8.888 1.173 1.173 0 0 1-.762-1.403 23.339 23.339 0 0 1 2.483-6.013 1.174 1.174 0 0 1 1.574-.436 4.693 4.693 0 0 0 6.364-6.364 1.174 1.174 0 0 1 .436-1.574 23.373 23.373 0 0 1 6.013-2.483 1.172 1.172 0 0 1 1.403.762 4.688 4.688 0 0 0 8.888 0 1.173 1.173 0 0 1 1.402-.762 23.339 23.339 0 0 1 6.013 2.483c.546.321.739 1.018.436 1.574a4.695 4.695 0 0 0 6.365 6.365 1.174 1.174 0 0 1 1.573.435 23.373 23.373 0 0 1 2.484 6.013 1.172 1.172 0 0 1-.763 1.403 4.688 4.688 0 0 0 0 8.888c.582.197.915.806.763 1.402a23.339 23.339 0 0 1-2.484 6.013 1.174 1.174 0 0 1-1.573.436 4.695 4.695 0 0 0-6.365 6.365c.303.555.11 1.252-.436 1.573a23.373 23.373 0 0 1-6.013 2.484 1.172 1.172 0 0 1-1.402-.763 4.688 4.688 0 0 0-8.888 0c-.164.486-.62.8-1.112.8h.002zM50 67.416a7.035 7.035 0 0 1 6.226 3.757 21.15 21.15 0 0 0 3.541-1.46 7.076 7.076 0 0 1-.384-2.297c0-3.88 3.156-7.036 7.035-7.036.783 0 1.562.132 2.298.385a20.875 20.875 0 0 0 1.459-3.541 7.03 7.03 0 0 1-3.757-6.226 7.033 7.033 0 0 1 3.757-6.227 21.15 21.15 0 0 0-1.459-3.54 7.076 7.076 0 0 1-2.298.384c-3.879 0-7.035-3.157-7.035-7.035 0-.784.131-1.562.384-2.299a20.875 20.875 0 0 0-3.54-1.458A7.03 7.03 0 0 1 50 34.58a7.033 7.033 0 0 1-6.226-3.757c-1.22.375-2.406.865-3.541 1.458.253.737.384 1.515.384 2.299 0 3.878-3.156 7.035-7.035 7.035a7.076 7.076 0 0 1-2.298-.385 20.875 20.875 0 0 0-1.459 3.541 7.03 7.03 0 0 1 3.757 6.227 7.033 7.033 0 0 1-3.757 6.226 20.86 20.86 0 0 0 1.459 3.541 7.076 7.076 0 0 1 2.298-.385c3.879 0 7.035 3.157 7.035 7.036a7.08 7.08 0 0 1-.384 2.298 20.875 20.875 0 0 0 3.54 1.459A7.03 7.03 0 0 1 50 67.416z"/><path d="M50 58.035c-3.879 0-7.035-3.156-7.035-7.035S46.12 43.965 50 43.965 57.035 47.12 57.035 51 53.88 58.035 50 58.035zm0-11.725A4.695 4.695 0 0 0 45.31 51 4.695 4.695 0 0 0 50 55.69 4.695 4.695 0 0 0 54.69 51 4.695 4.695 0 0 0 50 46.31z"/></g></svg>