<svg width="100" height="100" viewBox="0 0 100 100" xmlns="http://www.w3.org/2000/svg"><title>fast</title><g fill="#262626" fill-rule="evenodd"><path d="M65.075 37.323l2.898-2.902-1.613-1.616-3.117 3.122a22.415 22.415 0 0 0-11.613-3.958v-6.562h3.765v-2.286h-9.823v2.286h3.765v6.552C37.537 32.553 28 42.269 28 54.339c0 12.466 10.163 22.524 22.49 22.524 12.325 0 22.488-10.18 22.488-22.524 0-6.793-3.073-12.905-7.903-17.016zM50.49 74.587c-11.075 0-20.206-8.915-20.206-20.127s9.131-20.248 20.206-20.248 20.206 8.915 20.206 20.127c0 11.213-9.131 20.248-20.206 20.248z"/><path d="M49 41h2v-5h-2zm0 32h2v-5h-2zm15-18h5v-2h-5zm-32 0h5v-2h-5zm9.656-12L52 53.345 50.345 55 40 44.655z"/></g></svg>