<svg width="100" height="100" viewBox="0 0 100 100" xmlns="http://www.w3.org/2000/svg"><title>fisical faces</title><g stroke="#262626" stroke-width=".5" fill="#262626" fill-rule="evenodd"><path d="M39 49.035c0 .442.169.857.474 1.17l.571.584A3.967 3.967 0 0 0 42.902 52c1.08 0 2.093-.43 2.857-1.211l4.024-4.12a8.696 8.696 0 0 0 5.685 2.105h.004c2.375-.002 4.61-.95 6.291-2.673a.84.84 0 0 0 0-1.17.794.794 0 0 0-1.142 0c-1.377 1.41-3.206 2.188-5.15 2.189h-.002a7.137 7.137 0 0 1-5.14-2.18.795.795 0 0 0-1.142 0l-4.572 4.68c-.914.937-2.512.937-3.427 0l-.571-.585 9.712-9.944c.906-.927 1.767-.927 2.857-.927 1.166 0 2.62 0 3.999-1.412l2.285-2.34a.84.84 0 0 0 0-1.17.794.794 0 0 0-1.143 0l-2.284 2.34c-.907.928-1.767.928-2.857.928-1.167 0-2.62 0-4 1.412l-9.711 9.942a1.662 1.662 0 0 0-.475 1.17zM33.5 35c.827 0 1.5-.673 1.5-1.5s-.673-1.5-1.5-1.5-1.5.673-1.5 1.5.673 1.5 1.5 1.5zm7.742 2.414l2.343 2.343a.825.825 0 0 0 1.172 0 .827.827 0 0 0 0-1.171l-2.343-2.343a.828.828 0 1 0-1.172 1.171zM67.5 31c.827 0 1.5-.673 1.5-1.5s-.673-1.5-1.5-1.5-1.5.673-1.5 1.5.673 1.5 1.5 1.5zm2.063 12.237c-1.369 1.315-1.838 3.455-2.292 5.526-.403 1.838-.82 3.739-1.833 4.713l-1.192 1.143a.787.787 0 0 0 0 1.144c.165.159.38.237.596.237.215 0 .43-.078.596-.237l1.19-1.144c1.368-1.313 1.837-3.453 2.29-5.523.404-1.84.821-3.74 1.835-4.715a.786.786 0 0 0 0-1.144.865.865 0 0 0-1.19 0zm4.206.353L60.906 30.13l2.6-2.72a.852.852 0 0 0 0-1.168.764.764 0 0 0-1.117 0l-3.157 3.305a.852.852 0 0 0 0 1.168l13.42 14.043a.77.77 0 0 0 .558.242.77.77 0 0 0 .559-.242.853.853 0 0 0 0-1.168z"/><path d="M56.383 49.781a.827.827 0 0 0-1.155 0 .794.794 0 0 0 0 1.137l8.662 8.516a1.589 1.589 0 0 1 0 2.271 1.658 1.658 0 0 1-2.31 0l-8.663-8.517a.826.826 0 0 0-1.154 0 .792.792 0 0 0 0 1.136L62.735 65.11a1.588 1.588 0 0 1 0 2.271 1.656 1.656 0 0 1-2.31 0L50.03 57.163a.826.826 0 0 0-1.154 0 .792.792 0 0 0 0 1.136l9.239 9.084a1.589 1.589 0 0 1 0 2.272c-.618.607-1.692.607-2.31-.001l-1.155-1.135h-.001l-7.506-7.38a.826.826 0 0 0-1.155 0 .793.793 0 0 0 0 1.135l7.507 7.38c.309.304.478.707.478 1.137 0 .429-.17.832-.478 1.135a1.655 1.655 0 0 1-2.31 0L37.295 58.28c-2.118-2.082-2.578-4.707-2.984-7.024-.341-1.948-.664-3.789-1.917-5.02a.826.826 0 0 0-1.155 0 .793.793 0 0 0 0 1.135c.887.871 1.154 2.394 1.462 4.158.425 2.425.954 5.443 3.439 7.886l13.89 13.646a3.29 3.29 0 0 0 2.31.939 3.29 3.29 0 0 0 2.31-.94 3.181 3.181 0 0 0 .895-1.645c1.198.567 2.757.327 3.725-.626a3.178 3.178 0 0 0 .895-1.647 3.313 3.313 0 0 0 3.724-.624 3.176 3.176 0 0 0 0-4.542l-.309-.305a3.27 3.27 0 0 0 1.465-.83 3.178 3.178 0 0 0 0-4.543l-8.662-8.517zM40.768 33.035l-4.736-4.8a.781.781 0 0 0-1.117 0 .807.807 0 0 0 0 1.13l4.18 4.235L26.23 46.634a.807.807 0 0 0 0 1.132.782.782 0 0 0 1.117 0l13.42-13.6a.807.807 0 0 0 0-1.131zm5.019 40.155c-.46.242-1.249.271-1.958-.439-.71-.713-.704-1.54-.474-1.901a.831.831 0 0 0-.178-1.095.824.824 0 0 0-1.105.06 1.656 1.656 0 0 1-2.344 0 1.668 1.668 0 0 1 0-2.35.827.827 0 1 0-1.171-1.174l-.585.587a1.655 1.655 0 0 1-2.343 0 1.667 1.667 0 0 1 0-2.349l.586-.587a.832.832 0 0 0 .071-1.094.828.828 0 0 0-1.072-.212c-.45.26-1.243.23-1.927-.455-.727-.73-.724-1.538-.49-1.878a.832.832 0 0 0-.21-1.155.826.826 0 0 0-1.153.211c-.67.974-.652 2.659.682 3.996.525.526 1.096.84 1.66.99a3.318 3.318 0 0 0-.289 1.359c0 .887.345 1.721.971 2.348a3.308 3.308 0 0 0 3.143.875 3.313 3.313 0 0 0 3.994 2.96c.102.688.435 1.408 1.062 2.038.766.768 1.661 1.075 2.478 1.075a3.07 3.07 0 0 0 1.421-.34.83.83 0 0 0-.769-1.47z"/></g></svg>