<svg width="100" height="100" viewBox="0 0 100 100" xmlns="http://www.w3.org/2000/svg"><title>notify</title><path d="M32.884 68.535l13.785-10.62 3.381 2.604a.742.742 0 0 0 .905 0l3.38-2.604 13.777 10.624-35.228-.004zM34.943 42.4v4.63l-.881-.676-2.127-1.64 3.008-2.314zm1.472-11.939h28.17v17.454L50.503 58.77 36.415 47.915V30.46zm32.65 14.253l-3.008 2.316V42.4l3.008 2.314zM63.51 63.138l-7.976-6.15 13.395-10.32.6-.462v21.573l-6.019-4.64zM31.468 46.206l3.759 2.892 10.243 7.89-14.002 10.785V46.206zM71 44.714c0-.205-.111-.378-.251-.517-.018-.013-.015-.045-.036-.06l-4.656-3.589V29.73a.732.732 0 0 0-.736-.73H35.68a.732.732 0 0 0-.736.73v10.818l-4.66 3.59c-.021.014-.014.046-.032.059-.143.139-.251.312-.251.517v24.553c0 .05.027.085.038.13.007.037-.011.073 0 .11.01.026.036.036.048.063a.7.7 0 0 0 .146.193c.044.043.075.087.132.117.017.013.027.034.045.043a.75.75 0 0 0 .295.066c.014.004.018.011.032.011h39.528c.11 0 .22-.025.323-.073.025-.013.034-.034.052-.047.05-.026.081-.067.12-.108a.773.773 0 0 0 .155-.204c.012-.025.038-.035.045-.06.01-.036-.007-.07.003-.107.007-.047.038-.084.038-.132V44.714z" fill="#262626" fill-rule="evenodd"/></svg>