<svg width="103" height="100" viewBox="0 0 103 100" xmlns="http://www.w3.org/2000/svg" xmlns:xlink="http://www.w3.org/1999/xlink"><title>payment</title><defs><path id="a" d="M20.158.076H.005v29.917h40.307V.076H20.158z"/><path id="c" d="M.038 30.233h42.667V.068H.038v30.165z"/></defs><g fill="none" fill-rule="evenodd"><g transform="translate(28 31)"><mask id="b" fill="#fff"><use xlink:href="#a"/></mask><path d="M2.986 1.572c-.821 0-1.493.673-1.493 1.496V27c0 .823.672 1.496 1.493 1.496h34.34c.82 0 1.492-.673 1.492-1.496V3.068c0-.823-.671-1.496-1.492-1.496H2.986zm34.34 28.42H2.986A2.998 2.998 0 0 1 0 27.002V3.068A2.998 2.998 0 0 1 2.986.076h34.34a2.998 2.998 0 0 1 2.986 2.992V27a2.998 2.998 0 0 1-2.986 2.992z" fill="#262626" mask="url(#b)"/><path d="M1.493 9.799h37.325V5.31H1.493V9.8zm38.072 1.496H.746c-.447 0-.746-.3-.746-.748V4.563c0-.448.299-.747.746-.747h38.819c.448 0 .747.299.747.747v5.984c0 .449-.3.748-.747.748z" fill="#262626" mask="url(#b)"/></g><path d="M52.635 55.01h10.451v-5.236H52.635v5.235zm11.197 1.495H51.888c-.448 0-.746-.299-.746-.748v-6.731c0-.449.298-.748.746-.748h11.944c.448 0 .747.3.747.748v6.731c0 .449-.299.748-.747.748zm-26.127-9.723h-5.972c-.448 0-.747-.299-.747-.748 0-.448.299-.748.747-.748h5.972c.447 0 .746.3.746.748 0 .45-.299.748-.746.748m8.958 0H40.69c-.448 0-.747-.299-.747-.748 0-.448.299-.748.747-.748h5.972c.448 0 .746.3.746.748 0 .45-.298.748-.746.748m-5.225 2.992h-9.704c-.448 0-.747-.3-.747-.748 0-.449.299-.748.747-.748h9.704c.448 0 .747.3.747.748 0 .449-.299.748-.747.748" fill="#262626"/><g transform="translate(30.1 37.486)"><mask id="d" fill="#fff"><use xlink:href="#c"/></mask><path d="M16.563 12.288h-2.24c-.447 0-.746-.3-.746-.748 0-.449.299-.748.747-.748h2.24c.447 0 .746.3.746.748 0 .449-.299.748-.747.748" fill="#262626" mask="url(#d)"/><path d="M1.558 23.507a1.51 1.51 0 0 0 1.344 1.346l34.414 3.89c.821.074 1.568-.524 1.642-1.347l2.24-24.008c.075-.374-.075-.823-.299-1.122-.224-.3-.597-.524-.97-.524l-1.717-.15v18.923a2.998 2.998 0 0 1-2.986 2.992H1.558zm35.907 6.731h-.298l-34.489-3.89a2.91 2.91 0 0 1-2.613-3.29l.075-.374a.67.67 0 0 1 .672-.673h34.414c.821 0 1.493-.673 1.493-1.496V.77c0-.224.075-.449.224-.523a.58.58 0 0 1 .597-.15l2.464.3c.82.074 1.493.448 2.015 1.121.523.598.747 1.421.672 2.169l-2.24 24.008c-.149 1.421-1.493 2.543-2.986 2.543z" fill="#262626" mask="url(#d)"/></g></g></svg>