<svg width="100" height="100" viewBox="0 0 100 100" xmlns="http://www.w3.org/2000/svg"><title>personal</title><path d="M49.96 52.1c-6.373 0-11.556-5.18-11.556-11.55 0-6.37 5.183-11.55 11.556-11.55 6.372 0 11.555 5.18 11.555 11.55 0 6.37-5.183 11.55-11.555 11.55zm0-21c-5.213 0-9.455 4.24-9.455 9.45 0 5.21 4.242 9.45 9.455 9.45 5.212 0 9.454-4.24 9.454-9.45 0-5.21-4.242-9.45-9.454-9.45zM66.768 71H33.152A3.155 3.155 0 0 1 30 67.85c0-.143.03-3.538 2.574-6.93 1.48-1.974 3.508-3.543 6.028-4.66 3.075-1.367 6.897-2.06 11.358-2.06 4.46 0 8.282.693 11.358 2.06 2.519 1.12 4.546 2.686 6.027 4.66 2.545 3.391 2.574 6.787 2.574 6.93A3.155 3.155 0 0 1 66.768 71zM49.96 56.3c-7.327 0-12.733 2.001-15.634 5.788-2.175 2.837-2.223 5.737-2.225 5.766 0 .576.47 1.046 1.05 1.046h33.617c.58 0 1.05-.47 1.05-1.05 0-.025-.048-2.925-2.225-5.762C62.69 58.3 57.283 56.3 49.96 56.3z" fill="#262626" fill-rule="evenodd"/></svg>