<svg width="100" height="100" viewBox="0 0 100 100" xmlns="http://www.w3.org/2000/svg"><title>service</title><g fill="#262626" fill-rule="evenodd"><path d="M70.93 79.076l-7.28-25.428C67.54 50.17 70 45.128 70 39.5c0-10.493-8.507-19-19-19s-19 8.507-19 19c0 5.61 2.447 10.638 6.314 14.116L31.07 78.921c-.115.4.03.829.365 1.077a.997.997 0 0 0 1.135.04l6.678-4.277 3.646 7.045a1 1 0 0 0 1.853-.202L50.98 59.34l6.275 23.419a.999.999 0 0 0 1.853.201l3.646-7.043 6.678 4.276a1 1 0 0 0 1.5-1.117zM34 39.5c0-9.374 7.626-17 17-17 9.374 0 17 7.626 17 17 0 9.374-7.626 17-17 17-9.374 0-17-7.626-17-17zm9.482 40.094l-2.963-5.727a.998.998 0 0 0-1.427-.382l-5.371 3.44 6.283-21.948a18.873 18.873 0 0 0 9.155 3.43l-5.677 21.187zm19.426-5.952a.999.999 0 0 0-1.427.382l-2.963 5.725L52.8 58.41a18.874 18.874 0 0 0 9.16-3.405l6.32 22.077-5.372-3.44z"/><path d="M51 51.5c6.627 0 12-5.373 12-12s-5.373-12-12-12-12 5.373-12 12 5.373 12 12 12zm0-22c5.514 0 10 4.486 10 10s-4.486 10-10 10-10-4.486-10-10 4.486-10 10-10z"/></g></svg>