<svg width="100" height="100" viewBox="0 0 100 100" xmlns="http://www.w3.org/2000/svg"><title>special</title><path d="M37.907 61.017l.86.86 23.108-23.109-.86-.86-23.108 23.109zm5.026-14.821a3.887 3.887 0 0 0 3.882-3.884 3.887 3.887 0 0 0-3.882-3.883 3.887 3.887 0 0 0-3.882 3.883 3.886 3.886 0 0 0 3.882 3.884zm0-6.55a2.67 2.67 0 0 1 2.666 2.666 2.67 2.67 0 0 1-2.666 2.667 2.67 2.67 0 0 1-2.666-2.667 2.67 2.67 0 0 1 2.666-2.667zM56.85 54.803a3.887 3.887 0 0 0-3.882 3.883 3.887 3.887 0 0 0 3.882 3.884 3.887 3.887 0 0 0 3.882-3.883 3.886 3.886 0 0 0-3.882-3.884zm0 6.55a2.67 2.67 0 0 1-2.666-2.666 2.67 2.67 0 0 1 2.666-2.668 2.67 2.67 0 0 1 2.666 2.668 2.669 2.669 0 0 1-2.666 2.667zM50.5 28C38.093 28 28 38.093 28 50.5S38.093 73 50.5 73 73 62.907 73 50.5 62.907 28 50.5 28zm0 43.784c-11.735 0-21.284-9.549-21.284-21.284S38.765 29.216 50.5 29.216 71.784 38.765 71.784 50.5 62.235 71.784 50.5 71.784z" stroke="#262626" stroke-width=".5" fill="#262626" fill-rule="evenodd"/></svg>