<svg width="100" height="100" viewBox="0 0 100 100" xmlns="http://www.w3.org/2000/svg"><title>wait</title><path d="M34.103 63.466A1.554 1.554 0 0 0 33 64.951v5.556c0 .875.685 1.56 1.56 1.56h31.88c.874 0 1.56-.685 1.56-1.56V64.95c0-.686-.457-1.293-1.104-1.485-.533-5.974-4.26-10.996-9.434-13.432 5.173-2.436 8.901-7.459 9.434-13.435A1.549 1.549 0 0 0 68 35.117V29.56c0-.876-.686-1.561-1.56-1.561H34.56c-.875 0-1.56.685-1.56 1.56v5.557c0 .683.457 1.293 1.103 1.482.533 5.976 4.261 10.999 9.435 13.435-5.213 2.436-8.902 7.458-9.435 13.432zm30.776 5.48H36.12v-2.434h28.723v2.434h.037zm-28.721-35.39h28.721V31.12H36.158v2.436zm1.103 3.12h26.515c-.76 6.622-6.43 11.797-13.276 11.797-6.85 0-12.44-5.175-13.239-11.797zm13.276 14.919c6.849 0 12.479 5.174 13.278 11.795H37.26c.8-6.62 6.429-11.795 13.276-11.795z" stroke="#FFF" fill="#262626" fill-rule="evenodd"/></svg>