<svg width="100" height="100" viewBox="0 0 100 100" xmlns="http://www.w3.org/2000/svg"><title>years</title><g fill="#262626" fill-rule="evenodd"><path d="M39.808 55.542h10.911v1.583H39.808zm0-4.75h20.264v1.583H39.808zm0-4.75h20.264v1.583H39.808zm0-4.75h20.264v1.583H39.808z"/><path d="M74.1 31H25.78a.786.786 0 0 0-.779.792v5.541c0 .438.349.792.78.792h5.455V69l7.014-3.167L44.484 69l5.456-3.167L55.396 69l6.235-3.167L68.645 69V38.125h5.456c.43 0 .78-.354.78-.792v-5.541A.785.785 0 0 0 74.1 31zm-42.865 5.542h-4.676v-3.959h4.676v3.959zm35.851 30.022l-4.822-2.178-.673-.303-.657.334-5.49 2.788-4.73-2.746-.774-.45-.773.45-4.732 2.746-5.489-2.788-.657-.334-.673.303-4.822 2.178v-33.98h34.292v33.98zm6.235-30.022h-4.676v-3.959h4.676v3.959z"/></g></svg>