<svg width="30" height="30" viewBox="0 0 30 30" xmlns="http://www.w3.org/2000/svg"><title>data</title><path d="M14.5 16A5.506 5.506 0 0 1 9 10.5C9 7.467 11.467 5 14.5 5S20 7.467 20 10.5 17.533 16 14.5 16zm0-10a4.505 4.505 0 0 0-4.5 4.5c0 2.481 2.019 4.5 4.5 4.5s4.5-2.019 4.5-4.5S16.981 6 14.5 6zm8 19h-16c-.827 0-1.5-.673-1.5-1.5 0-.068.014-1.685 1.225-3.3.705-.94 1.67-1.687 2.869-2.219C10.558 17.33 12.377 17 14.5 17c2.123 0 3.942.33 5.406.981 1.199.533 2.164 1.279 2.869 2.219C23.986 21.815 24 23.432 24 23.5c0 .827-.673 1.5-1.5 1.5zm-8-7c-3.487 0-6.06.953-7.441 2.756C6.024 22.107 6.001 23.488 6 23.502a.5.5 0 0 0 .5.498h16a.5.5 0 0 0 .5-.5c0-.012-.023-1.393-1.059-2.744C20.559 18.953 17.986 18 14.5 18z" fill="#999" fill-rule="evenodd"/></svg>