<svg width="30" height="30" viewBox="0 0 30 30" xmlns="http://www.w3.org/2000/svg"><title>data copy</title><path d="M24 22H9c-.762 0-1-.224-1 0 0-.776.238-1 1-1h15c.762 0 1 .224 1 1 0-.224-.238 0-1 0zm0-6H9c-.762 0-1-.224-1 0 0-.776.238-1 1-1h15c.762 0 1 .224 1 1 0-.224-.238 0-1 0zm0-6H9c-.762 0-1-.224-1 0 0-.776.238-1 1-1h15c.762 0 1 .224 1 1 0-.224-.238 0-1 0zM6 11c-1.327 0-2-.673-2-1 0-1.327.673-2 2-2 .327 0 1 .673 1 2 0 .327-.673 1-1 1zM5 9c.224 0 0 .224 0 1 0-.224.224 0 0 0 .776 0 1-.224 1 0 0-.776-.224-1-1-1zm1 8c-1.327 0-2-.673-2-1 0-1.327.673-2 2-2 .327 0 1 .673 1 2 0 .327-.673 1-1 1zm-1-2c.224 0 0 .224 0 0 0 .776.224 1 0 1 .776 0 1-.224 1-1 0 .224-.224 0-1 0zm1 8c-1.327 0-2-.673-2-1 0-1.327.673-2 2-2 .327 0 1 .673 1 2 0 .327-.673 1-1 1zm-1-2c.224 0 0 .224 0 0 0 .776.224 1 0 1 .776 0 1-.224 1-1 0 .224-.224 0-1 0z" fill="#999" fill-rule="evenodd"/></svg>