<svg width="30" height="30" viewBox="0 0 30 30" xmlns="http://www.w3.org/2000/svg"><title>data copy 3</title><path d="M23.5 9h-16C6.673 9 6 9.673 6 10.5v9c0 .827.673 1.5 1.5 1.5h16c.827 0 1.5-.673 1.5-1.5v-9c0-.827-.673-1.5-1.5-1.5zm0 1c.03 0 .058.003.087.008l-7.532 5.021c-.29.193-.819.193-1.109 0l-7.532-5.021A.494.494 0 0 1 7.501 10h16-.001zm0 10h-16a.5.5 0 0 1-.5-.5v-8.566l7.391 4.927c.311.207.71.311 1.109.311s.798-.104 1.109-.311L24 10.934V19.5a.5.5 0 0 1-.5.5z" fill="#999" fill-rule="evenodd"/></svg>