<svg width="30" height="30" viewBox="0 0 30 30" xmlns="http://www.w3.org/2000/svg"><title>data copy 4</title><path d="M8.989 22.009a8.446 8.446 0 0 1-2.49-6.01c0-2.27.884-4.405 2.49-6.01a8.447 8.447 0 0 1 6.01-2.49h1.293l-2.146-2.146a.5.5 0 0 1 .707-.707l3 3a.498.498 0 0 1 0 .708l-3 3a.5.5 0 0 1-.707-.707L16.292 8.5h-1.293c-4.136 0-7.5 3.364-7.5 7.5s3.364 7.5 7.5 7.5 7.5-3.364 7.5-7.5a.5.5 0 0 1 1 0c0 2.27-.884 4.405-2.49 6.01a8.447 8.447 0 0 1-6.01 2.49 8.441 8.441 0 0 1-6.01-2.49v-.002z" fill="#999" fill-rule="evenodd"/></svg>